<svg xmlns="http://www.w3.org/2000/svg" xmlns:xlink="http://www.w3.org/1999/xlink" version="1.1" id="Layer_2" x="0px" y="0px" viewBox="0 0 100 100" enable-background="new 0 0 100 100" xml:space="preserve" height="100px" width="100px">
<path d="M16.3,59.5c-0.4,4.2-1.1,8.5-0.7,12.7c0.3,3.2,1.1,6.3,2.3,9.2c2.3,5.4,6.4,10.8,12.1,12.9c3.8,1.4,7.7,0.8,11.6,0.5  c4.1-0.3,8.2-0.2,12.3-0.3c5.7-0.1,12-0.6,16.8-4c2.5-1.8,4.1-4,5.7-6.5c0.1-0.1,0.2-0.2,0.2-0.3c0.1,0,0.2,0,0.2-0.1  c1.6-1.7,4.4,0,6.3-0.9c2-0.9,2.7-3.2,3.4-5.1c0-0.1,0-0.1,0-0.2c1.5-0.5,2.7-1.7,3.2-3.3c0.5-1.7,0.3-3.4-0.1-5.1  c-0.5-2.1-0.8-4.1-0.9-6.3c0-4.2-0.1-8.2-0.8-12.3c-0.8-4.3-1.8-8.4-3-12.6c-1.1-3.8-2.2-7.8-3.7-11.4c-1.2-3-3.1-5.8-5.8-7.5  c-3.1-2-6.7-2.9-10.4-3.4c-0.1,0-0.1,0-0.2,0c0.3-1.7,0.6-3.3-0.1-4.9c-0.7-1.5-1.8-2.9-2.6-4.4c-0.9-1.7-2.9-3.8-5-2.3  c-1.7,1.2-1.8,4.7-4,5.2c-1.6,0.3-3.4,0.1-4.6,1.4c-0.9,0.9-1,2.4-1.2,3.6c-5.4,1.2-10.5,3.9-14.8,7.3c-4.8,3.8-8.9,8.4-11.6,13.9  c-0.1,0.1-0.1,0.2-0.1,0.2c-0.4,0.7-0.7,1.5-1,2.3c-1.3,3.3-2.1,6.8-2.6,10.3c-0.1,0.5-0.1,1-0.2,1.6c0,0.1,0,0.1,0,0.2  C16.6,53.1,16.6,56.3,16.3,59.5z M16.9,75.8c1.4,0.7,2.8,1.2,4.2,1.8c1.5,0.7,3,1.2,4.6,1.6c1.8,0.4,3.5,0.9,5.2,1.5  c1.4,0.5,2.7,1.1,4.1,1.3c0,0.3,0.1,0.5,0.1,0.8c-1.2-0.6-2.5-0.8-3.7-1.2c-1.6-0.5-3.2-1.2-4.8-1.8c-1.7-0.7-3.5-1.3-5.2-2  c-1.4-0.6-2.8-1.4-4.3-1.8c-0.1,0-0.1,0-0.1,0C16.9,76,16.9,75.9,16.9,75.8z M17,76.2c0.6,0.8,1.6,1.1,2.5,1.5  c1.4,0.6,2.8,1.2,4.3,1.8c1.7,0.6,3.3,1.3,5.1,1.9c1.7,0.6,3.4,1.1,5,1.9c0.4,0.2,0.9,0.4,1.3,0.7c-0.3-0.2-0.8-0.2-1.2-0.4  c-0.7-0.3-1.4-0.6-2.1-0.8c-1.7-0.6-3.4-1.1-5-1.6c-1.7-0.6-3.4-1.3-5.1-1.9c-1.4-0.5-3.1-0.8-4.3-1.7c0,0-0.1,0-0.1,0  C17.2,77.1,17.1,76.7,17,76.2z M33.2,28.1c-0.1,0-0.3,0.1-0.4,0.1c-0.6,0.2-1.3,0.4-1.9,0.7c0.7-0.4,1.4-0.7,2.1-1  C33.1,28,33.1,28.1,33.2,28.1z M33.8,27.7c0.1,0,0.2-0.1,0.4-0.1c0,0,0,0,0,0.1c0,0.1,0,0.2,0,0.3c-0.1,0-0.2,0.1-0.3,0.1  C33.8,27.9,33.8,27.8,33.8,27.7z M35,27.5c0-0.1,0-0.1,0-0.2c0,0,0.1,0,0.1,0c0,0,0,0,0,0v0C35,27.3,35,27.4,35,27.5  c0.1,0,0.1,0,0.1,0.1c-0.1,0-0.1,0-0.2,0C34.9,27.6,34.9,27.5,35,27.5z M35.9,27.4c0-0.1,0-0.2,0-0.3c0.2,0,0.4-0.1,0.5-0.1  c0,0.1,0,0.2,0,0.3C36.2,27.3,36,27.4,35.9,27.4C35.9,27.4,35.9,27.4,35.9,27.4z M37.2,26.9c0.2,0,0.4,0,0.5-0.1c0,0.1,0,0.2,0,0.3  c-0.2,0-0.3,0-0.5,0.1C37.2,27.1,37.2,27,37.2,26.9z M38.8,26.7c0,0.1,0,0.2,0,0.3c-0.1,0-0.2,0-0.3,0c0-0.1,0-0.1,0-0.1  c0,0,0-0.1,0-0.1C38.6,26.7,38.7,26.7,38.8,26.7z M39.9,26.8C39.9,26.8,39.9,26.8,39.9,26.8C39.9,26.8,39.9,26.8,39.9,26.8  C39.9,26.8,39.9,26.8,39.9,26.8c-0.1,0.1-0.1,0.2-0.1,0.2c-0.1,0-0.1,0-0.2,0c0,0,0,0,0-0.1c0,0.1,0,0,0,0c0,0,0,0,0,0  c0,0,0-0.1,0,0c0,0,0,0,0,0c0,0,0,0,0,0c0,0,0,0,0,0C39.7,26.8,39.8,26.8,39.9,26.8z M41.1,26.9c0,0.1,0,0.1,0,0.2  c-0.1,0-0.2,0-0.4,0c0,0,0,0-0.1,0c0,0,0,0,0-0.1c0,0,0-0.1,0-0.1c0,0,0,0,0,0C40.9,26.8,41,26.9,41.1,26.9z M42.2,27.1  C42.2,27.1,42.2,27.1,42.2,27.1c-0.1,0.1-0.2,0.1-0.3,0.1v0c0,0,0-0.1,0-0.1C42,27,42.1,27,42.2,27.1z M43.9,32.9  c0,0.3-0.3,1.9-0.9,1.1c-0.7-0.9-0.4-2.4-0.2-3.4c0.1-0.7,0.3-1.4,0.4-2c0.1,0.7,0.3,1.4,0.4,2.2C43.7,31.4,43.9,32.2,43.9,32.9z   M41.3,31.1c-0.3,0.8-1.1,3.1-2.2,3c-0.7-0.1-1.3-0.9-1.1-1.5c0.2-0.7,0.7-1.4,1.3-1.9c0.8-0.8,1.8-1.6,2.9-2.1  C41.9,29.4,41.6,30.2,41.3,31.1z M42.1,26.1c0-0.1,0.2-0.1,0.4-0.1c0.2,0,0.5,0.1,0.7,0.3C42.8,26.2,42.4,26.2,42.1,26.1z   M45.4,27.9c-0.5-0.1-1-0.3-1.4-0.4c0,0,0,0,0,0C44.4,27.6,44.9,27.7,45.4,27.9z M52.9,48.5c0,0.1,0.1,0.2,0.1,0.2  c-0.1,0-0.3-0.1-0.4-0.1c0,0,0,0,0-0.1c0-0.1,0-0.1,0-0.2C52.6,48.3,52.8,48.3,52.9,48.5z M16.9,61.5c2.2,1.8,5.1,3,7.7,4.1  c1.5,0.7,2.9,1.4,4.4,2c1.4,0.6,2.6,1.4,3.9,2.1c0.3,0.2,0.6,0.4,1,0.5c-0.4-0.2-0.9-0.3-1.3-0.5c-0.7-0.3-1.4-0.7-2.1-1.1  c-1.5-0.8-3-1.4-4.5-2c-3-1.3-6.2-2.5-9.1-4.1c0,0-0.1,0-0.1,0C16.8,62.2,16.8,61.9,16.9,61.5z M16.7,62.8  C16.7,62.8,16.7,62.8,16.7,62.8c2.9,1.6,6,2.7,9.1,4.1c1.5,0.7,3,1.3,4.5,2c1.2,0.6,2.3,1.2,3.6,1.7c0,0.1,0,0.3,0,0.4  c-2.8-1.2-5.5-2.6-8.3-3.6c-3-1.1-6-2.2-9-3.2c0,0,0,0,0,0C16.6,63.7,16.7,63.2,16.7,62.8z M16.4,65.6c2.9,1.2,5.7,2.4,8.6,3.6  c1.5,0.7,3.1,1.3,4.6,2.1c0.7,0.4,1.4,0.8,2.1,1.1c0.1,0.1,0.3,0.2,0.5,0.2c-0.7-0.3-1.4-0.6-2.1-0.9c-1.3-0.6-2.7-1-4.1-1.4  c-3.2-1-6.4-2.4-9.6-3.4c0,0,0,0,0,0C16.4,66.5,16.4,66.1,16.4,65.6z M21.5,73.9c3.1,1.1,6.3,1.9,9.1,3.5c0.7,0.4,1.5,0.9,2.3,1.2  c0.5,0.2,1,0.3,1.5,0.6c-0.3-0.2-0.7-0.2-1-0.4c-1.9-0.6-3.7-1.5-5.6-2.1c-0.9-0.3-1.9-0.6-2.8-0.9c-2.9-1.1-5.8-2.2-8.6-3.3  c0-0.2,0-0.5-0.1-0.7C18,72.8,19.7,73.4,21.5,73.9z M17.4,72.2c0,0,0.1,0,0.1,0C17.4,72.2,17.4,72.2,17.4,72.2z M17,72  c0.1,0,0.2,0.1,0.2,0.1C17.2,72.1,17.1,72.1,17,72z M16.4,72.8c0.1,0,0.1,0.1,0.2,0.1c0,0.1,0.1,0.2,0.4,0.2  c2.5,1.1,5.1,2.1,7.7,2.9c1.8,0.7,3.6,1.4,5.4,2.1c0.8,0.3,1.6,0.7,2.5,1c0.5,0.2,1,0.3,1.4,0.6c0.2,0.1,1,0.5,0,0.2  c-1.9-0.5-3.8-1.2-5.7-1.9c-4.1-1.3-8-2.6-11.8-4.6C16.4,73.2,16.4,73,16.4,72.8z M32.4,80.5c0.8,0.4,1.6,0.8,2.4,1.4  c-0.5-0.3-1.6-0.4-2.2-0.6c-0.7-0.3-1.4-0.6-2.1-0.8c-1.6-0.6-3.2-1-4.8-1.4c-1.7-0.4-3.3-1-5-1.8c-1.3-0.6-2.7-1-4-1.7  c-0.1-0.4-0.1-0.7-0.2-1.1c0.1,0.1,0.2,0.1,0.4,0.2c0,0.1,0.1,0.2,0.4,0.2c2.6,1.2,5.3,2.2,8,3.1C27.8,78.7,30.1,79.7,32.4,80.5z   M33.8,81.1c0.4,0.1,0.8,0.3,1.2,0.4c0,0.1,0,0.2,0,0.3C34.6,81.5,34.2,81.3,33.8,81.1z M36,89.2c-0.7-0.6-1.6-0.8-2.4-1  c-1.8-0.5-3.5-1.1-5.2-1.7c-1.8-0.7-3.6-1.2-5.4-1.7c-0.9-0.3-2.7-0.4-3.1-1.4c-0.1-0.2-0.2-0.4-0.4-0.6c0.2,0.1,0.3,0.1,0.5,0.2  c0.5,0.3,1,0.5,1.4,0.7c0.7,0.4,1.3,0.7,2,1c1.5,0.6,3.1,1,4.6,1.5c1.6,0.5,3.2,1,4.7,1.5c1,0.4,2.1,0.8,3.2,0.7c0,0,0,0,0,0  C35.9,88.7,35.9,88.9,36,89.2z M34.6,87.8c0.3,0.1,1.7,0.7,0.3,0.4c-1.2-0.3-2.3-0.8-3.5-1.1c-1.5-0.4-2.9-0.9-4.4-1.4  c-1.6-0.5-3.2-1-4.6-1.7c0.2,0.1,0.4,0.1,0.6,0.2c1.4,0.5,2.9,0.8,4.4,1.2c1.6,0.5,3.1,1,4.6,1.5C32.9,87.1,33.8,87.4,34.6,87.8z   M21,83.1c2.5,0.8,5.1,1.6,7.7,2.3c0.7,0.2,1.5,0.4,2.2,0.7c-1-0.3-2-0.6-3-0.9c-1.5-0.4-2.9-0.7-4.4-1.2  C22.6,83.8,21.8,83.5,21,83.1z M33.9,87.3c0.6,0.2,1.2,0.4,1.8,0.4c0,0.2,0.1,0.3,0.1,0.5C35.2,87.9,34.6,87.5,33.9,87.3z   M35.7,87.4c-3.3-1.4-6.7-2.5-10.1-3.7c0.3,0.1,0.6,0.1,0.9,0.2c1.6,0.4,3.2,0.8,4.8,1.3c1.5,0.5,2.9,1,4.3,1.5  C35.6,87,35.7,87.2,35.7,87.4z M35.6,86.4c-2.7-1.4-5.5-2.1-8.3-3.2c-1.7-0.6-3.6-1.2-5.2-2c-1.2-0.6-2.7-1.2-3.8-1.9c0,0,0,0,0,0  c0.1,0.1,0.2,0.2,0.4,0.2c0.3,0.1,0.6,0.3,0.9,0.4c0.8,0.3,1.6,0.6,2.4,0.9c1.6,0.6,3.2,1.1,4.8,1.6c1.6,0.5,3.2,1,4.8,1.6  c1.3,0.5,2.6,1,4,1.4C35.5,85.7,35.5,86.1,35.6,86.4z M35.4,85.1c-2.8-1.4-5.8-2.4-8.7-3.4c-1.8-0.7-3.7-1.3-5.5-2.1  c-1-0.4-2.1-0.8-3.1-1.3c1.1,0.5,2.4,0.8,3.5,1.2c1.5,0.6,3.1,1.2,4.6,1.7c1.8,0.6,3.7,1.2,5.5,1.8c1.2,0.4,2.3,1,3.5,1.2  C35.3,84.5,35.4,84.8,35.4,85.1z M35.2,83.8c-1.3-0.7-2.6-1.3-4-1.8c-1.6-0.5-3.2-1-4.7-1.7c-1.8-0.7-3.7-1.3-5.4-2.1  c-1-0.5-2.2-0.8-3.2-1.4c-0.3-0.2-1.4-0.9-0.2-0.3c0.2,0.1,0.6,0.4,0.8,0.4c0.7,0.3,1.5,0.6,2.2,0.9c1.6,0.6,3.1,1.2,4.7,1.8  c1.8,0.7,3.6,1.4,5.4,2c1.4,0.5,2.9,0.8,4.2,1.4C35.2,83.3,35.2,83.6,35.2,83.8z M32.3,47.4c0,0.1,0,0.3,0,0.4  c-0.3-0.1-0.6-0.2-1-0.3C31.6,47.4,32,47.4,32.3,47.4z M34,72c-0.7-0.5-1.5-0.9-2.3-1.3c-1.4-0.6-2.8-1.2-4.2-1.9  c-3-1.4-6.1-2.5-9.1-3.9c-0.1,0-0.2-0.1-0.2-0.1c0.6,0.2,1.1,0.4,1.7,0.6c1.6,0.6,3.2,1.1,4.7,1.7c3.2,1.2,6.2,2.6,9.3,4  C33.9,71.5,34,71.8,34,72z M33.9,70.2c-2.2-1.6-4.9-2.6-7.4-3.8c-2.9-1.4-6.3-2.6-8.9-4.5c-0.9-0.6,0.7,0.3,0.9,0.4  c0.4,0.2,0.8,0.4,1.3,0.6c0.7,0.4,1.4,0.8,2.1,1.1c1.5,0.7,3,1.3,4.4,2c1.5,0.7,2.9,1.3,4.4,1.9c1.1,0.5,2.1,1.2,3.2,1.7  C33.8,69.8,33.8,70,33.9,70.2z M31.6,68.1c0.5,0.3,1.1,0.5,1.6,0.9c1,0.7-0.9-0.5-1.1-0.7C31.8,68.3,31.7,68.2,31.6,68.1z M26.1,65  c-1.6-0.8-3.2-1.6-4.7-2.5c-1.2-0.7-2.7-1.3-3.7-2.3c0,0,0,0,0,0c0,0,0.1,0,0.1,0.1c0.4,0.2,0.7,0.5,1.1,0.7  c0.7,0.4,1.4,0.8,2.1,1.1c1.6,0.7,3.3,1.4,4.9,2.2c2.6,1.2,5.1,2.8,7.8,4c0,0.2,0,0.3,0,0.5c0,0.1,0,0.3,0,0.4  c-1-0.7-2.2-1.3-3.3-1.8C29,66.7,27.6,65.8,26.1,65z M17.2,59.6c-0.1,0-0.1,0-0.1,0c0-0.2,0-0.4,0.1-0.6c2.9,1.8,5.9,3.4,9,4.8  c1.5,0.7,2.9,1.5,4.3,2.4c0.3,0.2,0.6,0.4,1,0.6c-2-1.1-4-2.2-6.1-3.2c-1.5-0.7-3-1.3-4.5-2C19.5,61.1,18.4,60.3,17.2,59.6z   M17.5,54.7c1,0.8,2.2,1.3,3.4,1.8c1.4,0.7,2.8,1.4,4.2,2.1c2.7,1.4,5.4,2.9,7.8,4.7c1,0.7-0.2-0.1-0.4-0.2  c-0.3-0.2-0.5-0.3-0.8-0.5c-0.7-0.4-1.3-0.8-2-1.2c-1.4-0.7-2.9-1.5-4.3-2.1c-2.7-1.2-5.3-2.6-8.1-3.6c0-0.7,0.1-1.4,0.1-2.1  c0.1,0.1,0.2,0.1,0.3,0.1c0,0.1,0.1,0.2,0.4,0.2c0.1,0.1,0.3,0.2,0.5,0.2c0.3,0.1,0.6,0.3,0.9,0.4c0.8,0.4,1.5,0.7,2.3,1.1  c1.4,0.6,2.8,1.3,4.1,2c2.4,1.3,5,2.6,7.2,4.1c-0.6-0.4-1.5-0.6-2.1-1c-0.5-0.3-0.9-0.6-1.4-0.9c-1.3-0.7-2.7-1.4-4.1-2  c-2.6-1.2-5.5-2.2-8-3.5C17.5,54.5,17.4,54.6,17.5,54.7z M33.3,60.9c-2.5-1.6-4.9-3.3-7.6-4.5c-2.2-1-4.6-1.9-6.6-3.2  c0.1,0,0.1,0.1,0.2,0.1c0.7,0.3,1.5,0.7,2.2,1c1.4,0.6,2.7,1.3,4.1,2c2.5,1.3,5.1,2.6,7.7,3.6C33.2,60.3,33.3,60.6,33.3,60.9z   M33.1,58.5c-1.1-0.6-2.2-1.3-3.4-1.8c-1.4-0.6-2.9-1.3-4.3-1.9c-2.6-1.2-5.1-2.4-7.6-3.8c0,0-0.1,0-0.1,0c0-0.1,0-0.2,0-0.3  c0.1-0.1,0.1-0.1,0.2-0.2c2.5,1.2,5,2.6,7.6,3.8c2.6,1.1,5.1,2.3,7.5,3.8c0,0,0,0,0,0C33.1,58.2,33.1,58.4,33.1,58.5z M24.6,55.1  c2.5,1.2,5.1,2.4,7.5,4c0.6,0.4,2,1.1,0.1,0.2c-0.8-0.3-1.6-0.7-2.4-1.1c-1.4-0.7-2.8-1.4-4.2-2.1c-2.6-1.3-5.4-2.4-7.9-3.8  c0,0-0.1,0-0.1,0c0-0.4,0.1-0.7,0.1-1.1C19.6,52.9,22.3,54,24.6,55.1z M32,60.3c-0.1,0-0.2-0.1-0.3-0.1c-0.6-0.3-1.1-0.6-1.7-0.9  c-1.3-0.7-2.7-1.4-4.1-2c-2.2-1-4.4-1.9-6.6-2.9c-0.6-0.3-1.2-0.6-1.9-1c0-0.3,0.1-0.6,0.1-1c0,0,0,0,0,0c2.3,1.7,5,2.8,7.6,4  C27.6,57.5,29.8,58.9,32,60.3z M33.5,63.7c0,0.3,0,0.5,0,0.8C31,63,28.7,61.4,26,60.1c-2.8-1.3-5.6-2.5-8.2-4.2  c1.2,0.8,3,1.4,4.4,2.1c1.3,0.6,2.7,1.2,4,1.8C28.7,61,31,62.6,33.5,63.7z M33.6,65.6c-0.7-0.6-1.6-0.9-2.3-1.4  c-1.3-0.9-2.6-1.8-4-2.5c-1.3-0.7-2.6-1.3-3.9-1.9c0.9,0.4,1.8,0.8,2.7,1.3c1.5,0.7,2.9,1.5,4.3,2.2c1.1,0.6,2,1.3,3.2,1.6  C33.6,65.1,33.6,65.3,33.6,65.6z M33.7,66.9c-0.8-0.6-1.7-1.1-2.6-1.6c-1.4-0.8-2.8-1.7-4.3-2.4c-2.4-1.1-4.8-2.3-7.2-3.5  c0.6,0.3,1.3,0.6,1.9,0.9c1.5,0.7,3.1,1.4,4.6,2.1c2.5,1.2,4.9,2.7,7.5,3.7C33.6,66.3,33.6,66.6,33.7,66.9z M33.6,67.1  c-0.4-0.4-1.4-0.6-1.9-0.9c-0.6-0.3-1.1-0.7-1.7-1c-1.3-0.7-2.7-1.4-4-2.1c-2.7-1.3-5.4-2.5-8-3.9c-0.1-0.2-0.2-0.2-0.3-0.2  c-0.2-0.1-0.3-0.2-0.5-0.3c0,0,0,0,0,0c0.1-0.6,0.1-1.2,0.1-1.8c0-0.3,0-0.7,0.1-1c2.6,1.6,5.4,2.8,8.1,4.2c2.8,1.3,5.2,3,7.8,4.5  c-2.2-1.3-5.1-2.8-7.6-4c-2.7-1.3-5.4-2.6-8.2-3.9c-0.1-0.1-0.2,0.1-0.1,0.2c2.7,1.6,5.6,2.8,8.4,4.2c2.5,1.2,4.8,2.8,7.2,4.3  c0.1,0,0.4,0.2,0.6,0.4c0,0,0,0.1,0,0.1c-0.4-0.2-0.9-0.4-1.3-0.6c-0.7-0.4-1.4-0.8-2.1-1.1c-1.3-0.7-2.7-1.3-4-2  c-2.9-1.3-5.8-2.8-8.8-4.1c-0.1-0.1-0.2,0.1-0.1,0.2c2.8,1.6,5.6,3,8.5,4.4c1.5,0.7,3,1.5,4.4,2.3C31.3,65.6,32.7,66.2,33.6,67.1z   M32.3,48.5c-0.3-0.2-0.6-0.5-0.8-0.8c0.1,0.2,0.5,0.3,0.8,0.3C32.3,48.2,32.3,48.3,32.3,48.5z M32.3,49.6c-0.7-0.7-1.5-1.1-2.3-1.8  c0.6,0.5,1.5,0.8,2.3,1.1C32.3,49.1,32.3,49.4,32.3,49.6z M32.4,50.7c-1.2-0.9-2.5-1.7-3.7-2.6c0.9,0.6,2.4,1.5,3.7,2  C32.3,50.3,32.3,50.5,32.4,50.7z M32.5,52.2c-1.9-1.3-3.8-3-5.6-3.9c1.9,0.9,3.6,2.3,5.6,2.9C32.4,51.6,32.4,51.9,32.5,52.2z   M26.4,48.1c1.1,0.8,2.3,1.5,3.4,2.3c-1.3-0.9-2.7-1.7-4.2-2.3C25.8,48.1,26.1,48.1,26.4,48.1C26.3,48.1,26.4,48.1,26.4,48.1z   M32.5,52.5c0,0.2,0.1,0.5,0.1,0.7c-1.2-0.8-2.3-1.7-3.5-2.5c-1.2-0.8-2.6-1.5-3.7-2.5c0.4,0.4,1.5,0.7,2,1c0.7,0.4,1.3,0.8,2,1.2  c0.9,0.6,1.8,1.2,2.7,1.8C32.3,52.5,32.4,52.5,32.5,52.5C32.5,52.5,32.5,52.5,32.5,52.5z M31.5,52.7c-1.3-0.8-2.5-1.7-3.8-2.4  c-1.3-0.7-2.6-1.2-3.8-2c0.4,0,0.8-0.1,1.1-0.1c1.2,1.1,2.6,1.9,4,2.8C29.8,51.5,30.6,52.1,31.5,52.7C31.5,52.7,31.5,52.7,31.5,52.7  z M28.2,51.6c0.9,0.6,1.8,1.2,2.7,1.8c0.2,0.1,1.4,0.9,1.7,1.1c0,0,0,0,0,0.1c-0.1,0-0.2-0.1-0.3-0.1c-1.9-0.9-3.5-2.2-5.3-3.2  c-0.9-0.5-2-0.8-2.9-1.4c-0.6-0.4-1.2-0.9-1.9-1.2c0.4-0.1,0.8-0.1,1.3-0.2C25,49.6,26.7,50.4,28.2,51.6z M32.8,55.4  c-3.4-2.3-7-4.5-10.4-6.6c1.8,1.1,3.7,1.9,5.4,3c1.6,1,3.2,2.1,5,2.9C32.8,55,32.8,55.2,32.8,55.4z M32,55.1c-2-1-3.9-2.2-5.8-3.3  c-1.8-0.9-3.8-1.7-5.5-2.9c0.4-0.1,0.9-0.3,1.3-0.4c0,0,0,0,0,0.1c1.9,1.4,4.1,2.6,6.1,3.8c1,0.6,1.9,1.3,2.9,2  c0.6,0.4,1.1,0.8,1.7,1.1C32.9,55.7,32.1,55.2,32,55.1z M26.7,48c0.4,0,0.9-0.1,1.3-0.2c0.7,0.5,1.3,1,2,1.4  c0.7,0.5,1.6,1.4,2.4,1.7c0,0,0,0,0,0C30.4,50.3,28.6,48.9,26.7,48z M28.4,47.8C28.4,47.8,28.4,47.8,28.4,47.8  c0.4-0.1,0.7-0.1,1.1-0.2c0,0,0,0,0,0c0.6,0.5,1.2,0.9,1.8,1.3c-0.2-0.2,1.8,1.3,0.7,0.7c-0.3-0.1-0.5-0.2-0.7-0.4  C30.3,48.8,29.4,48.2,28.4,47.8z M31,47.5c0,0,0,0.1,0,0.1c0.2,0.3,0.5,0.5,0.7,0.8c0.1,0.1,0.3,0.2,0.5,0.3c0,0,0,0,0,0  c-0.1,0-0.2-0.1-0.4-0.2c-0.7-0.3-1.3-0.6-2-0.9C30.3,47.5,30.7,47.5,31,47.5z M32.7,54.3c-1.3-1-2.7-1.7-3.9-2.6  c-0.8-0.6-1.6-1.1-2.4-1.6c-0.4-0.3-0.8-0.5-1.2-0.8c0,0-0.1,0-0.1-0.1c1.1,0.6,2.3,1.1,3.4,1.8c1.4,0.9,2.8,1.8,4.2,2.6  C32.6,53.8,32.7,54,32.7,54.3z M33,56.7c-2-1.3-4.2-2.2-6.3-3.3c-2.5-1.2-4.9-2.5-7.4-3.7c-0.1-0.1-0.2,0.1-0.1,0.2  c2.5,1.2,4.9,2.5,7.4,3.7c2.2,1.1,4.4,2,6.5,3.3c0,0.3,0.1,0.5,0.1,0.8c-2.3-1.5-4.9-2.6-7.4-3.7c-2.6-1.1-5-2.5-7.5-3.7  c0.1-0.1,0.2-0.2,0.3-0.2c4.7,2.6,9.7,4.6,14.3,7.2c0.1,0.1,0.2-0.1,0.1-0.2c-4.6-2.6-9.6-4.6-14.2-7.2c0.4-0.3,0.8-0.5,1.3-0.7  c0.4,0.3,0.8,0.6,1.2,0.9c0.5,0.4,1.1,0.6,1.7,0.9c1,0.5,2.1,1.1,3.1,1.7c2.2,1.3,4.5,2.5,6.8,3.6c0.1,0.1,0.2-0.1,0.1-0.2  c-2.3-1.1-4.6-2.3-6.8-3.6c-1.2-0.7-2.3-1.4-3.5-1.9c-0.9-0.4-1.6-1-2.4-1.4c0.1,0,0.2-0.1,0.3-0.1c0,0,0,0,0,0.1  c1.9,1.4,4.3,2.2,6.4,3.4c2,1.1,3.9,2.3,6,3.3C32.9,56.1,32.9,56.4,33,56.7z M33.2,59.6c-2.2-1.6-4.7-2.8-7.2-4  c-2.4-1.2-5.1-2.2-7.3-3.8c-1.5-1.1,0.3,0.1,0.7,0.3c0.6,0.3,1.2,0.6,1.8,0.9c1.4,0.7,2.7,1.4,4.1,2c1.4,0.6,2.9,1.3,4.3,1.9  c1.2,0.5,2.3,1.3,3.5,1.8C33.2,59,33.2,59.3,33.2,59.6z M33.3,61.7c-2.9-1.9-6-3.5-9.2-5c0.4,0.2,0.8,0.4,1.2,0.5  c2.7,1.2,5.2,2.8,7.9,4C33.3,61.4,33.3,61.5,33.3,61.7z M33.5,63.4C28.7,59.8,23.3,57.5,18,55c3,1.4,6.1,2.5,9,3.9  c1.4,0.7,2.7,1.4,4,2.2c0.8,0.5,1.5,0.8,2.3,1C33.4,62.5,33.4,63,33.5,63.4z M33.7,67.9c-1-0.6-2.2-1.1-3.2-1.8  c-1.4-0.9-2.8-1.7-4.3-2.4c-1.5-0.7-3.1-1.5-4.6-2.3c-0.4-0.2-0.9-0.5-1.3-0.7c2.1,1,4.3,2,6.4,3.1c1.4,0.7,2.8,1.4,4.1,2.2  c0.9,0.5,1.8,1.1,2.8,1.3C33.7,67.5,33.7,67.7,33.7,67.9z M34.1,73.4c-1.1-0.7-2.4-1.2-3.5-1.8c-1.5-0.8-3-1.4-4.5-2.1  c-1.9-0.8-3.9-1.6-5.9-2.5c1.5,0.5,3.1,0.9,4.6,1.5c3.2,1.1,6.2,2.5,9.2,3.9C34,72.7,34.1,73,34.1,73.4z M33.6,73.3  c1,0.5-0.6-0.2-0.9-0.4C33,73.1,33.3,73.2,33.6,73.3z M34.8,80c-0.9-0.6-1.9-0.9-2.9-1.3c-1.3-0.5-2.6-1.1-3.8-1.6  c0.7,0.2,1.4,0.5,2.1,0.8c1.5,0.6,3,1.3,4.6,1.6C34.7,79.6,34.8,79.8,34.8,80z M22,76.2c0.9,0.3,1.8,0.6,2.7,0.9  c1.8,0.6,3.6,1.2,5.5,1.8c1.5,0.5,3,1.1,4.6,1.4c0,0.3,0.1,0.6,0.1,0.9C30.9,78.9,26.3,77.8,22,76.2z M29.5,76.6  c1.7,0.6,3.4,1.3,5.1,2.1c0,0.2,0,0.4,0.1,0.6c-1.2-0.8-2.7-1.2-3.9-2C30.3,77,29.9,76.8,29.5,76.6z M26,74.4  c-1.8-0.7-3.7-1.3-5.5-2.2c-1.3-0.6-2.6-1.3-4-1.8c2.7,1,6.1,2.3,9.1,3.4c1.7,0.6,3.5,1.3,5.2,2.1c1.2,0.6,2.4,1.2,3.6,1.5  c0,0.3,0.1,0.7,0.1,1C31.8,76.9,29,75.5,26,74.4z M30.2,75.4c0.2,0.1,0.4,0.2,0.6,0.2c0.8,0.3,1.6,0.6,2.4,0.9  c0.3,0.1,0.9,0.5,1.2,0.6c-0.6-0.2-1.2-0.4-1.8-0.7C31.8,76.2,31,75.8,30.2,75.4z M25.9,73.4c-2-0.7-3.9-1.3-5.8-2.3  c-0.3-0.2-0.6-0.3-0.9-0.5c0.2,0,0.3,0.1,0.5,0.1c1.7,0.5,3.5,1,5.2,1.6c1.7,0.6,3.4,1.1,5,1.7c1.5,0.6,2.9,1.6,4.5,2  c0,0.3,0.1,0.6,0.1,0.9c-0.9-0.6-2-0.9-3-1.3C29.5,74.9,27.8,74.1,25.9,73.4z M25.2,71.7c-1.6-0.6-3.3-1.1-4.8-1.9  c1.5,0.6,3.1,1.2,4.7,1.7c1.7,0.6,3.4,1.1,5,1.7c1.4,0.6,2.7,1.3,4.1,1.7c0,0.3,0.1,0.6,0.1,0.9C31.2,74.4,28.4,72.8,25.2,71.7z   M34.2,74.5c-2.3-1.5-5.2-2.3-7.7-3.2c-2.8-1.1-5.6-2.3-8.4-3.5c0.1,0,0.1,0,0.2,0.1c0.8,0.3,1.6,0.6,2.5,1c1.5,0.6,3.1,1.1,4.7,1.6  c3,0.9,5.8,2.2,8.7,3.3C34.1,74,34.1,74.3,34.2,74.5z M16.5,65.4c0-0.4,0.1-0.7,0.1-1.1c0.2,0.1,0.3,0.2,0.5,0.2  c0,0,0.1,0.1,0.2,0.1c2.9,1.4,5.9,2.4,8.8,3.8c1.3,0.6,2.5,1.3,3.7,1.8c1.3,0.5,2.7,1,3.9,1.8c0.6,0.5-0.7-0.3-0.7-0.4  c-0.3-0.1-0.6-0.3-0.9-0.4c-0.8-0.4-1.6-0.7-2.4-1c-1.4-0.6-2.9-1.2-4.3-1.7c-1.6-0.6-3.2-1-4.7-1.5C19.2,66.5,17.9,65.8,16.5,65.4z   M16.9,61.3c0.1-0.5,0.1-1,0.2-1.6c0,0,0,0,0,0c0.9,1,2,1.7,3.2,2.3c1.5,0.8,2.9,1.6,4.4,2.4c1.5,0.8,3,1.7,4.5,2.5  c0.3,0.2,0.7,0.3,1,0.5c-1.6-0.7-3.2-1.4-4.7-2.1c-1.6-0.7-3.2-1.4-4.8-2.2C19.5,62.5,18.2,61.8,16.9,61.3  C16.9,61.3,16.9,61.3,16.9,61.3z M26.5,47.3c0.8-0.2,1.6-0.4,2.4-0.6c0.1,0,0.2-0.1,0.3-0.1c0,0,0,0.1,0,0.1c0,0.1,0,0.1,0,0.2  c-0.7,0.1-1.3,0.2-2,0.3C27,47.2,26.7,47.3,26.5,47.3z M30.1,46.7c0-0.1,0-0.2,0-0.3c0.4-0.1,0.9-0.2,1.3-0.2c0,0.1-0.1,0.3-0.1,0.4  C30.9,46.7,30.5,46.7,30.1,46.7C30.1,46.8,30.1,46.7,30.1,46.7z M32.2,46.1c0.2,0,0.4,0,0.6-0.1c0,0.2,0,0.3,0,0.5c0,0,0,0,0,0  c-0.2,0-0.5,0-0.7,0c0-0.1,0-0.1,0-0.2C32.2,46.3,32.2,46.2,32.2,46.1z M33.7,46c0.3,0,0.5,0,0.8,0c0,0.2,0,0.4,0,0.5  c-0.2,0-0.4,0-0.5,0c-0.1,0-0.2,0-0.3,0C33.7,46.4,33.7,46.2,33.7,46z M35.3,46c0.3,0,0.5,0,0.8,0c0,0.2,0,0.4,0,0.6  c-0.2,0-0.5,0-0.7,0C35.3,46.4,35.3,46.2,35.3,46z M37.2,46c0,0.2,0.1,0.4,0.1,0.6c-0.1,0-0.3,0-0.4,0c0-0.2,0-0.4,0.1-0.6  C37,46,37.1,46,37.2,46z M38,46.1c0.3,0,0.7,0.1,1,0.1c0,0.2,0,0.4,0.1,0.7c-0.3,0-0.6-0.1-1-0.1C38.1,46.5,38.1,46.3,38,46.1z   M39.8,46.3c0.3,0,0.5,0.1,0.8,0.1c0,0,0,0,0,0.1c0.1,0.2,0.1,0.4,0.2,0.6c-0.3,0-0.6-0.1-0.9-0.1c0,0,0,0,0-0.1  C39.9,46.7,39.8,46.5,39.8,46.3z M44.1,90.2c0-0.2,0-0.4-0.1-0.6c0.2,0.1,0.3,0.3,0.5,0.4C45.7,90.8,44.6,90.3,44.1,90.2z M46,89.1  c-0.7-0.4-1.5-0.9-2.2-1.3c0-0.3-0.1-0.5-0.1-0.8c1.4,1.3,3.2,2.2,4.5,3.6c-0.3-0.3-0.9-0.5-1.3-0.8C46.8,89.7,46,89.1,46,89.1z   M46.2,90.1c0.5,0.6-0.6-0.2-0.6-0.2c-0.2-0.2-0.5-0.3-0.7-0.5c-0.3-0.2-0.6-0.3-0.9-0.5c0-0.3-0.1-0.6-0.1-0.8  C44.6,88.8,45.6,89.3,46.2,90.1z M43.5,85.6c1.8,1.9,4.2,3.1,6.2,4.9c0.1,0.1,0.2,0.2,0.2,0.2c0,0,0,0-0.1,0  c-0.2-0.1-0.8-0.6-0.9-0.6c-0.6-0.4-1.1-0.9-1.7-1.3c-1.1-0.8-2.4-1.3-3.6-2.1c0,0,0,0,0,0C43.6,86.3,43.6,85.9,43.5,85.6z   M43.3,84.4C43.3,84.4,43.3,84.4,43.3,84.4c2.2,2.2,5,3.5,7.3,5.4c-0.3-0.2-0.6-0.4-0.9-0.6c-0.7-0.5-1.4-0.9-2.2-1.4  c-1.4-0.9-2.8-1.7-4.1-2.6C43.4,84.9,43.4,84.6,43.3,84.4z M43.2,83.4c1,1,2.4,1.6,3.6,2.4c1.9,1.3,3.9,2.6,5.7,4.1  c0.8,0.8,0,0.1-0.3-0.2c-0.3-0.2-0.6-0.5-1-0.7c-0.7-0.6-1.5-1.1-2.3-1.5c-1.8-1.1-3.5-2.3-5.4-3.2c-0.1,0-0.2,0-0.2,0.1  C43.3,84,43.2,83.7,43.2,83.4z M44.1,83.9c0.2,0.1-0.3-0.2-0.6-0.4c0.3,0.2,0.7,0.4,1,0.7C44.4,84.1,44.3,84,44.1,83.9z M43,82.1  c1.4,1.3,3,2.2,4.6,3.2c1.6,0.9,3,2.1,4.4,3.2c-0.1-0.1-0.2-0.2-0.4-0.2c-0.9-0.6-1.9-1.2-2.9-1.7c-1.9-1.1-3.8-2.2-5.7-3.5  C43.1,82.7,43.1,82.4,43,82.1z M42.9,80.7c1.6,1.7,3.9,2.9,5.8,4.2c1.4,0.9,2.7,1.9,4,3c0.2,0.2,0.5,0.4,0.7,0.6c-1.4-1-2.8-2-4.3-3  c-2-1.2-4.1-2.3-6.1-3.7C42.9,81.4,42.9,81,42.9,80.7z M42.8,79.5c2,2,4.7,3.4,7,5c1.4,1,2.7,2,4,2.9c0.2,0.2,0.5,0.3,0.7,0.5  c-1.6-1-3.1-2-4.7-3c-2.4-1.5-4.9-2.8-7-4.6c0-0.1,0-0.3,0-0.4C42.8,79.8,42.8,79.6,42.8,79.5z M42.7,78.1c0.8,1,2,1.7,3,2.5  c1.2,1,2.5,1.8,3.8,2.6c1.6,1,3.2,2.1,4.7,3.2c-0.9-0.5-1.8-1.1-2.7-1.6c-3-1.7-6-3.5-8.8-5.7C42.8,78.8,42.8,78.4,42.7,78.1z   M42.6,76.3c1.5,2.2,4.4,3.6,6.5,5.1c1.5,1,3,2,4.6,3c1,0.6,1.9,1.3,2.8,2c-1.5-0.9-3.1-1.8-4.6-2.7c-3.1-1.8-6.7-3.4-9.2-6.1  C42.7,77.2,42.7,76.8,42.6,76.3z M42.5,74.5c0.6,1.1,2.2,1.9,3,2.5c1.8,1.4,3.6,2.8,5.5,4.1c2,1.4,4.1,2.7,6.1,4.1  c1.4,1,2.7,2.1,4.2,2.8c0,0,0,0,0.1,0.1c-0.3,0-0.5-0.2-0.8-0.3c-1.3-0.7-2.5-1.5-3.7-2.2c-2.6-1.5-5.3-2.9-7.8-4.6  c-2.3-1.5-4.3-3.4-6.6-4.9C42.6,75.4,42.6,75,42.5,74.5z M54.7,83.2c-2.6-1.8-5.3-3.5-7.8-5.5c-1.1-0.8-2.2-1.6-3.2-2.5  c-0.4-0.3-0.7-0.6-1-0.9c0-0.1,0-0.2,0-0.3c0.3,0.2,0.6,0.5,0.9,0.7c0.3,0.3,0.6,0.5,1,0.8c2.3,1.6,4.6,3.3,6.9,4.9  c2.6,1.8,5.2,3.6,7.7,5.6c0.6,0.4,1.2,0.9,1.7,1.4c0,0,0.1,0.1,0.1,0.1C58.7,86.4,56.7,84.6,54.7,83.2z M62.4,87.6  c-0.2-0.1-0.4-0.3-0.6-0.4c-0.4-0.3-0.8-0.5-1.2-0.8c-1-0.7-2-1.5-2.9-2.2c-1.9-1.5-3.9-3-5.8-4.5c-1.8-1.4-3.4-3-5.2-4.5  c-1.4-1.1-3-2-4.3-3.2c0-0.4-0.1-0.9-0.1-1.3c1.1,1.4,2.5,2.5,3.9,3.7c1.8,1.5,3.6,2.9,5.4,4.4c3.6,2.8,7.4,5.4,10.7,8.7  C62.4,87.5,62.4,87.5,62.4,87.6C62.5,87.6,62.5,87.6,62.4,87.6z M63.4,78.2c-2.8-2.5-5.8-4.8-8.9-6.9c-2.5-1.6-5-3.2-7.5-4.9  c-0.4-0.3-0.7-0.6-1.1-0.8c-1-0.8-2.1-1.4-3-2.3c-0.4-0.4-0.8-0.8-1.3-1.1c0-0.4-0.1-0.8-0.1-1.1c0.3,0.2,0.5,0.4,0.8,0.5  c0,0,0.1,0.1,0.1,0.1c0.2,0.2,0.5,0.4,0.7,0.6c0.6,0.5,1.2,1,1.7,1.6c1,0.9,1.9,1.7,3,2.4c2.5,1.7,5,3.3,7.5,5.1  c1.8,1.3,3.6,2.6,5.3,4.1c0.7,0.6,1.4,1.2,2,1.9C62.9,77.6,64.8,79.5,63.4,78.2z M53.3,69.7c-2.3-1.6-4.8-3-6.9-4.8  c-0.7-0.6-1.4-1.2-2.1-1.9c3.1,2.3,6.1,4.6,9.3,6.8c2,1.3,4,2.7,5.9,4.1c0.9,0.6,1.8,1.3,2.7,2c0.6,0.4,1.1,1,1.8,1.3  c0,0.4-0.1,0.9-0.1,1.3C60.9,75,57.1,72.3,53.3,69.7z M41.8,62.6C41.7,62.5,41.7,62.5,41.8,62.6C41.7,62.5,41.7,62.5,41.8,62.6z   M47.4,67c3.3,2.4,6.8,4.6,10,7.1c1.8,1.3,3.5,2.7,5,4.3c0.3,0.3,0.7,0.7,1,1c0.9,1-0.6-0.3-0.5-0.2c-0.7-0.6-1.3-1.2-2-1.8  c-3.1-2.7-6.5-5-9.9-7.3c-3.2-2.2-6.1-4.7-9.3-6.9c0-0.1,0-0.3,0-0.4c1.2,1.2,2.7,2.1,4.1,3.1C46.3,66.2,46.9,66.6,47.4,67z   M59.2,82.4c-1.8-1.7-3.7-3.4-5.6-5c-1.9-1.6-3.9-3.3-5.9-4.9c-1.3-1-2.4-2.1-3.6-3.1c0.9,0.7,1.8,1.5,2.8,2.2c2,1.5,4,2.9,6,4.4  c2.1,1.6,4.1,3.3,6.1,5.1c0.9,0.8,1.9,1.5,2.7,2.4c0.5,0.5,1,1,1.7,1.3c0,0.4-0.1,0.9-0.1,1.3C62.2,84.7,60.5,83.7,59.2,82.4z   M41.9,65.6c2.9,3.3,6.6,5.8,10,8.6c3.8,3.1,7.6,6.4,11,10c0.9,1-0.1,0.1-0.4-0.3c-0.4-0.4-0.7-0.8-1.1-1.1  c-0.9-0.7-1.7-1.5-2.5-2.2c-1.8-1.5-3.5-3.1-5.3-4.5c-3.8-2.9-7.7-5.6-11.3-8.7c0-0.1-0.1-0.1-0.1-0.2C42,66.7,42,66.1,41.9,65.6z   M41.8,64.5c3.6,3.2,7.3,6.1,11.1,9c2.1,1.6,4.2,3.3,6.3,5c0.9,0.7,1.7,1.5,2.6,2.3c0.5,0.5,0.9,0.9,1.4,1.4  c0.9,0.9-0.4-0.1-0.6-0.3c-3.6-3.1-7-6.2-10.9-8.9c-2.1-1.5-4.3-3-6.3-4.6c-0.8-0.6-1.5-1.2-2.2-2c-0.4-0.5-0.8-0.9-1.4-1.3  C41.9,64.9,41.9,64.7,41.8,64.5z M63.7,82.4c-2.9-3.5-7-6.3-10.6-9.1c-1.7-1.3-3.4-2.6-5-3.9c2,1.4,4.1,2.8,6.1,4.2  c2.2,1.5,4.3,3.2,6.3,5c0.8,0.7,1.6,1.4,2.4,2.2c0.3,0.3,0.5,0.6,0.9,0.6C63.7,81.8,63.7,82.1,63.7,82.4z M42.9,65.2  c0.6,0.5,1.2,1.1,1.8,1.6c-0.4-0.3-0.8-0.6-1.1-1c-0.5-0.4-1-0.9-1.5-1.3C41.6,64.1,43,65.3,42.9,65.2z M43.7,65.5  c0.5,0.4,1,0.7,1.5,1c1.9,1.2,3.7,2.6,5.5,3.9c2.3,1.6,4.6,3,6.6,4.9c0.9,0.8,1.8,1.7,2.8,2.5c0.8,0.7,1.8,1.2,2.4,2  c0.3,0.3,0.5,0.6,0.8,0.9c0.4,0.4,0.3,0.4-0.1,0.2c-0.4-0.4-0.8-0.7-1.2-1.1c-1-0.9-1.9-1.8-2.9-2.7c-1.8-1.5-3.7-2.9-5.6-4.3  c-2.3-1.6-4.7-3.1-6.9-4.8C45.6,67.3,44.6,66.3,43.7,65.5z M41.7,63.4c0.1,0,0.1,0.1,0.2,0.2c0.6,0.5,1.2,0.9,1.8,1.4  c1,0.8,1.9,1.6,2.9,2.4c0.1,0.1,0.2,0.2,0.3,0.2c-1.6-1.2-3.5-2.1-4.9-3.6c-0.1-0.1-0.3-0.3-0.4-0.5C41.8,63.5,41.7,63.5,41.7,63.4z   M63.9,80c0,0.3-0.1,0.7-0.1,1c-1.3-1.7-3-2.8-4.5-4.3c-1.8-1.6-3.5-3.2-5.5-4.5c-1.7-1.1-3.3-2.3-5-3.4c1.3,0.9,2.6,1.7,3.8,2.6  c2.4,1.6,4.8,3.3,7,5.1c1,0.8,2,1.6,2.9,2.5C62.9,79.4,63.3,79.8,63.9,80z M63.6,82.8c-0.1,0.6-0.1,1.1-0.2,1.7  c-3.4-3.6-7.2-7.1-11-10.2c-1.9-1.6-3.9-3-5.8-4.6c-1-0.8-1.9-1.6-2.8-2.4c-0.6-0.6-1.2-1.4-1.9-2l0,0c0.8,0.6,1.5,1.5,2.3,2.2  c0.9,0.7,1.7,1.4,2.6,2.1c2,1.5,4,2.9,6,4.4c2.2,1.6,4.3,3.3,6.3,5.1c1,0.9,2,1.8,3,2.7C62.6,82.1,63,82.5,63.6,82.8z M63.3,86.6  c0,0,0-0.1-0.1-0.1C63.2,86.6,63.3,86.6,63.3,86.6C63.3,86.6,63.3,86.6,63.3,86.6z M63.2,87c-0.7-0.3-1.2-0.7-1.7-1.2  c-0.6-0.6-1.3-1-2-1.5c-2.2-1.5-4.2-3.2-6.2-5c-3.6-3.2-7.2-6.4-11.1-9.2c0-0.4-0.1-0.9-0.1-1.3c0.5,1.2,1.6,2,2.6,2.8  c2,1.5,3.9,3.1,5.9,4.7c2,1.6,4.1,3.1,6,4.8c0.7,0.6,1.5,1.2,2.3,1.8c1.1,0.9,2.2,1.9,3.3,2.8C62.6,86.2,63.1,87,63.2,87z   M53.3,78.2c-2.1-1.6-4.1-3.2-6.2-4.9c-1.5-1.2-3.6-2.4-4.5-4c-0.5-0.8,0.2,0,0.4,0.2c0.3,0.3,0.7,0.6,1,0.9  c0.9,0.7,1.8,1.2,2.7,1.9c2.1,1.6,3.9,3.4,5.9,5.1c1,0.9,2,1.8,3,2.7C54.9,79.4,54.1,78.8,53.3,78.2z M54.4,80.6  c0.1,0.1,0.2,0.2,0.3,0.3c-0.9-0.7-1.7-1.3-2.6-2c-1.8-1.5-3.7-2.9-5.5-4.4c-0.8-0.6-1.6-1.3-2.4-2c-0.4-0.4-0.9-0.8-1.2-1.2  c-0.1-0.2-1.1-1-0.1-0.3C46.9,73.9,50.6,77.3,54.4,80.6z M42.1,67.7c1.6,1.5,3,3,4.7,4.4c2,1.6,4,3.2,5.9,4.9  c1.9,1.6,3.8,3.2,5.6,4.9c0.9,0.8,1.7,1.7,2.6,2.4c0.7,0.6,1.6,1.2,2.2,2c-0.5-0.7-1.5-1.4-2.2-1.9c-0.9-0.7-1.8-1.4-2.6-2.1  c-1.9-1.7-3.8-3.3-5.6-5c-1.8-1.6-3.6-3.3-5.5-4.8c-1.7-1.3-3.5-2.4-5-3.9c0,0,0,0-0.1,0C42.1,68.2,42.1,67.9,42.1,67.7z M41.8,63.8  c0.3,0.4,0.6,0.7,1,1c-0.3-0.2-0.6-0.4-1-0.6C41.8,64.1,41.8,63.9,41.8,63.8z M41.3,58.9c4.2,4.2,9.2,7.5,13.8,11.2  c2.3,1.8,4.8,3.5,7.2,5.4c0.5,0.4,1,0.7,1.4,1.1c0.4,0.4,0.4,0.4,0,0.2c-0.6-0.4-1.2-0.9-1.8-1.3c-1.2-0.9-2.4-1.7-3.5-2.5  c-2.7-1.9-5.5-3.7-8.2-5.5c-2.7-1.9-5.3-4.1-8-6c-0.1-0.1-0.1-0.1-0.2-0.1c-0.2-0.1-0.4-0.3-0.5-0.4C41.4,60.2,41.4,59.5,41.3,58.9z   M41.1,57c3.7,3.3,7.5,6.6,11.4,9.6c1.8,1.4,3.6,2.8,5.4,4.2c-1.8-1.2-3.5-2.4-5.3-3.6c-2.1-1.4-4.2-2.9-6.2-4.4  c-1.7-1.3-3.3-3-5.2-4.1c0-0.2,0-0.4-0.1-0.6C41.2,57.6,41.2,57.3,41.1,57z M41.1,56.6c-0.1-0.5-0.1-1-0.2-1.5c0,0,0.1,0.1,0.2,0.1  c0.5,0.4,1,0.8,1.5,1.1c0.5,0.4,0.9,0.8,1.4,1.1c1.5,1.1,3,2.3,4.5,3.4c1.9,1.4,3.8,2.8,5.6,4.2c1.5,1.2,3.2,2.3,4.6,3.6  c1.5,1.4,3,2.6,4.5,3.9c0.4,0.3,0.7,0.6,1.1,0.9c0,0,0,0,0,0c-0.2-0.1-0.6-0.5-0.6-0.5c-0.8-0.6-1.5-1.1-2.2-1.7  C54.7,66.4,47.7,61.7,41.1,56.6z M40.7,52.6c2.4,2.6,5.3,4.8,8.1,6.8c3.2,2.3,6.3,4.7,9.4,7.1c1.6,1.3,2.9,2.8,4.5,4.1  c0.5,0.4,1,0.9,1.5,1.3c-0.7-0.5-1.3-1-1.9-1.5c-3.1-2.6-6.5-4.9-9.8-7.2c-3.3-2.4-6.6-5-10-7.2c-0.2-0.1-0.4-0.2-0.5-0.3  c-0.4-0.3-0.7-0.6-1.1-0.9C40.8,54,40.8,53.3,40.7,52.6z M41.6,53.2c0.3,0.2,0.6,0.4,0.9,0.6c1,0.7,2,1.5,3.1,2.3  c2.2,1.5,4.4,3,6.5,4.6c2.4,1.8,4.8,3.7,7.2,5.7c1.7,1.4,3.3,3,5.1,4.2c0,0.4,0,0.7,0,1.1c-0.5-0.5-1.2-0.9-1.7-1.4  c-0.9-0.9-1.8-1.7-2.7-2.5c-2-1.7-4.2-3.4-6.3-5C49.6,59.4,45.2,56.8,41.6,53.2z M64.3,73.2c-6.3-5.7-13.3-10.6-20-15.8  c0.5,0.3,1.1,0.7,1.6,1.1c2.2,1.6,4.4,3.2,6.6,4.8c2.2,1.6,4.4,3.1,6.6,4.8c1.1,0.9,2.4,1.7,3.5,2.7c0.6,0.5,1.1,1,1.8,1.4  C64.3,72.5,64.3,72.9,64.3,73.2z M64.2,75.3c-1.5-1.6-3.5-2.7-5.2-4c-1.8-1.4-3.6-2.8-5.5-4.2c-3.7-2.8-7.3-5.9-10.8-9  c0.2,0.2,0.5,0.4,0.7,0.5c1.1,0.8,2.2,1.6,3.2,2.3c2.1,1.5,4.1,3,6.1,4.5c2,1.5,4.1,2.9,6.2,4.3c1.8,1.2,3.4,2.8,5.3,3.8  C64.2,74.2,64.2,74.7,64.2,75.3z M64.2,75.5c-0.6-0.6-1.7-1.4-2.4-2c-0.3-0.2-0.6-0.5-1-0.7C62,73.6,63.2,74.5,64.2,75.5  C64.2,75.5,64.2,75.5,64.2,75.5z M64.3,57.2c0,0.1,0,0.1,0,0.2c-0.8-1-1.8-1.8-2.8-2.6C62.5,55.5,63.4,56.3,64.3,57.2  C64.2,57.2,64.2,57.2,64.3,57.2z M50.8,49.8c0.4,0.5,0.9,1,1.4,1.4c0,0.4,0,0.7,0,1.1c-1.5-1.1-3.1-2.3-4.7-3.4  C48.6,49.2,49.7,49.5,50.8,49.8z M47.2,48.9c0,0,0,0.1,0,0.1c1.5,1.8,3.3,3.3,5.1,4.8c0,0.1,0,0.2,0.1,0.3c-2.5-1.8-5-3.6-7.4-5.6  C45.8,48.6,46.5,48.8,47.2,48.9z M44.7,48.4C44.7,48.5,44.7,48.5,44.7,48.4c2.5,2.7,5.4,4.8,8.3,6.9c0.2,0.3,0.4,0.4,0.7,0.5  c0.4,0.3,0.7,0.5,1.1,0.8c1.8,1.3,3.7,2.7,5.4,4.3c0.8,0.7,1.6,1.5,2.3,2.3c0.6,0.6,1.3,1.6,2,2.1v0c-0.7-0.5-1.4-1-2-1.6  c-0.5-0.5-1-1-1.5-1.5c-1.6-1.6-3.4-3-5.2-4.3c-0.6-0.4-1.2-0.9-1.8-1.3c0,0,0,0,0,0c-3.6-2.7-7.1-5.6-10.7-8.4  C43.7,48.3,44.2,48.4,44.7,48.4z M51.8,50.1c0.1,0.1,0.2,0.1,0.2,0.2c0,0,0.1,0.1,0.1,0.1c0,0.2,0,0.4,0,0.7  c-0.2-0.2-0.4-0.4-0.6-0.6c0,0-0.3-0.3-0.5-0.5C51.3,49.9,51.6,50,51.8,50.1z M53,50.5c0.1,0.1,0.1,0.2,0.2,0.2  c-0.1,0-0.1-0.1-0.2-0.1C53,50.6,53,50.6,53,50.5z M54.1,52.6c-0.4-0.3-0.7-0.6-1.1-0.9c0-0.3,0-0.6,0-0.8c0.2,0.1,0.3,0.2,0.5,0.3  C53.7,51.7,53.9,52.1,54.1,52.6z M54.1,52.7c0.1,0.2,0.2,0.8,0.3,1.3c-0.5-0.3-0.9-0.7-1.4-1c0-0.4,0-0.7,0-1.1  c0.1,0.1,0.3,0.2,0.4,0.3C53.6,52.3,53.8,52.5,54.1,52.7z M53,53.2c0.5,0.3,0.9,0.7,1.4,1c0,0.4,0,0.7-0.1,0.8  c-0.4-0.3-0.7-0.5-1.1-0.8C53.2,54,53.1,53.6,53,53.2z M52.3,53.5c-1.3-1-2.6-2.1-3.8-3.3c-0.2-0.2-0.4-0.4-0.6-0.6c0,0,0,0,0,0  c0.3,0.2,0.7,0.5,1,0.7c0.8,0.6,1.7,1.2,2.5,1.8c0.3,0.2,0.5,0.4,0.8,0.6C52.2,52.9,52.3,53.2,52.3,53.5z M54.5,55.8  c0.1,0.1,0.2,0.2,0.3,0.3c2,1.5,4,3,5.8,4.6c1.3,1.1,2.4,2.5,3.8,3.5c0,0.3,0,0.5,0,0.8c-0.4-0.4-0.9-0.9-1.3-1.3  c-0.8-0.7-1.4-1.6-2.2-2.3c-1.5-1.4-3-2.6-4.6-3.9c-0.7-0.6-1.5-1.1-2.2-1.6C54.2,55.9,54.4,55.9,54.5,55.8  C54.5,55.8,54.5,55.8,54.5,55.8z M52.7,54.9c-2.3-1.6-4.6-3.3-6.6-5.3c0.2,0.2,0.4,0.3,0.6,0.5c0.8,0.6,1.6,1.2,2.5,1.8  c1.1,0.8,2.2,1.6,3.3,2.4C52.6,54.5,52.6,54.7,52.7,54.9z M64.4,63.5c-0.8-1.1-2-2.1-2.9-2.9c-1.2-1.1-2.5-2.1-3.9-3.1  c-0.8-0.6-1.7-1.3-2.6-1.9c0.2-0.2,0.3-0.4,0.3-0.6c0.3,0.2,0.6,0.5,0.9,0.7c1.7,1.2,3.5,2.5,5.1,3.9c1,0.9,1.8,1.9,3,2.5  C64.4,62.5,64.4,63,64.4,63.5z M54.8,55.8c0,0,0.1,0,0.1-0.1c0.3,0.2,0.5,0.4,0.8,0.6c1.7,1.2,3.4,2.5,4.9,3.8  c0.7,0.6,1.4,1.3,2,1.9c0.6,0.5,1.3,1.1,1.8,1.8c0,0,0,0,0,0c-0.3-0.4-0.9-0.7-1.2-1c-0.3-0.3-0.7-0.7-1-1c-0.7-0.6-1.4-1.3-2.2-1.9  c-1.5-1.3-3.1-2.5-4.7-3.7C55.2,56.1,55,55.9,54.8,55.8z M53.5,54.7c0.2,0.2,0.4,0.3,0.7,0.5c-0.1,0-0.2,0-0.3-0.1  C53.7,54.9,53.6,54.8,53.5,54.7z M55.3,53.6c0.8,0.6,1.6,1.2,2.3,1.8c1.4,1.1,2.7,2.3,4,3.5c0.7,0.6,1.2,1.3,1.9,1.9  c0.1,0.1,0.7,0.7,0.9,1c0,0,0,0.1,0,0.1c0,0-0.1-0.1-0.2-0.1c-1.4-0.9-2.5-2.3-3.8-3.3c-1.3-1-2.6-2-4-3c-0.3-0.2-0.7-0.5-1-0.7  C55.4,54.4,55.4,54,55.3,53.6z M64.4,67c-0.3-0.4-0.7-0.8-1.1-1.2c0.3,0.3,0.7,0.6,1.1,0.8C64.4,66.8,64.4,66.9,64.4,67z M64.4,66  c-0.3-0.3-0.5-0.7-0.8-1c0.3,0.2,0.5,0.4,0.8,0.5C64.4,65.7,64.4,65.8,64.4,66z M64.3,58.3c-1.9-2-4.1-3.7-6.2-5.6  c0.6,0.3,1.1,0.6,1.6,0.9c0.2,0.2,0.5,0.4,0.7,0.6c1.4,1.1,2.7,2.1,3.8,3.5C64.3,57.9,64.3,58.1,64.3,58.3z M64.3,58.6  c-0.3-0.3-0.6-0.5-0.9-0.8c-1.5-1.6-3.3-2.9-5-4.2c-0.6-0.5-1.2-1-1.8-1.5c0.3,0.1,0.6,0.3,0.9,0.4c1.1,1,2.3,2,3.5,2.9  c0.9,0.7,1.7,1.4,2.5,2.3C63.7,58,64,58.3,64.3,58.6C64.3,58.6,64.3,58.6,64.3,58.6z M54.2,50.9c1.7,1.8,3.7,3.3,5.6,4.9  c1,0.9,2,1.8,3,2.8c0.5,0.5,1.1,0.9,1.5,1.4c0,0,0.1,0.1,0.1,0.1c0,0.1,0,0.1,0,0.2c-0.3-0.3-0.6-0.6-0.7-0.7  c-2.1-2-4.4-3.9-6.7-5.8c-0.8-0.6-1.5-1.3-2.3-1.9C54.5,51.6,54.3,51.3,54.2,50.9z M64.4,60.6c0,0.3,0,0.5,0,0.8  c-0.7-0.8-1.6-1.6-2.3-2.3c-1.2-1.1-2.3-2.2-3.6-3.2c-1-0.8-2.2-1.6-3.3-2.4c-0.1-0.3-0.2-0.7-0.4-1.1c1,0.9,2.1,1.7,3.1,2.6  C60.2,56.7,62.2,58.8,64.4,60.6z M64.4,68.7c-0.4-0.5-0.9-0.9-1.4-1.3c-0.9-0.8-1.8-1.7-2.6-2.5c-1.9-1.9-3.9-3.5-6-5.1  c-1.8-1.4-3.6-2.8-5.3-4.2c1.1,0.8,2.3,1.6,3.4,2.4c2.4,1.7,4.8,3.3,7,5.2c1,0.9,2.2,1.7,3.2,2.7c0.6,0.6,1.1,1.2,1.8,1.6  C64.4,67.9,64.4,68.3,64.4,68.7z M64.4,69.3c-1.3-1-2.5-2.4-3.7-3.5c-6.3-5.5-13.6-9.6-19.9-15c0-0.5,0.1-1,0.1-1.5  c0.1,0.1,0.2,0.2,0.2,0.2c0,0.1,0.1,0.2,0.3,0.3c0,0,0.1,0.1,0.1,0.1c0.1,0.1,0.2,0.2,0.3,0.2c3,2.6,6.1,5.1,9.2,7.5  c3.4,2.6,6.8,5.1,9.9,8.2c0.7,0.7,1.4,1.4,2.2,2.1c0.3,0.3,0.6,0.5,0.9,0.8c0,0,0.2,0.2,0.3,0.4C64.4,69.1,64.4,69.2,64.4,69.3z   M41.1,47.9c0.4,0.1,0.8,0.1,1.3,0.2c0.1,0,0.3,0,0.4,0.1c1.7,1.6,3.6,3,5.5,4.4c0.3,0.2,0.6,0.5,1,0.7c0.3,0.2,0.6,0.4,0.9,0.7  c1.3,1,2.6,2,4,3c0,0,0,0,0,0c2.1,1.5,4.2,3.1,6.1,4.8c0.5,0.4,1,1,1.5,1.5c0.4,0.5,0.9,1,1.3,1.4c0.4,0.4,0.7,0.8,1.1,1.2  c0.1,0.1,0.3,0.3,0.4,0.5c0,0,0,0.1,0,0.1c-0.1-0.1-0.2-0.2-0.4-0.4c-3.6-3.2-7.1-6.4-11-9.3c-0.3-0.2-0.6-0.5-1-0.7  c-1.6-1.2-3.2-2.5-4.8-3.7c-1.8-1.4-3.5-3-5.5-4.2c0,0,0,0,0,0c-0.1-0.1-0.3-0.2-0.4-0.2c-0.1-0.1-0.2,0.1-0.1,0.2  c0.1,0.1,0.3,0.2,0.4,0.2c0,0.1,0.1,0.2,0.4,0.2c0.4,0.3,0.7,0.5,1,0.8c0.5,0.4,1,0.8,1.5,1.2c0.9,0.7,1.8,1.5,2.8,2.2  c1.3,1,2.6,1.9,3.9,2.9c3.3,2.5,6.6,5,9.6,7.8c0.8,0.8,1.6,1.5,2.3,2.3c0.3,0.3,0.6,0.7,1,1.1c0,0,0.2,0.2,0.3,0.3c0,0,0,0.1,0,0.1  c-0.1,0-0.1-0.1-0.2-0.2c-1.6-1.2-3.1-2.7-4.6-4c-3.2-2.7-6.7-4.9-10-7.3c-1.9-1.4-3.8-2.9-5.6-4.4c-0.5-0.4-1.1-0.9-1.7-1.2  c-0.1-0.1-0.2-0.2-0.3-0.2c-0.4-0.3-0.7-0.6-1.1-1c0-0.3,0.1-0.6,0.2-0.9C41.1,48,41.1,48,41.1,47.9z M46.6,52.1  c-0.5-0.4-0.9-0.7-1.4-1.1c0.6,0.5,1.2,1,1.8,1.5C46.9,52.3,46.8,52.2,46.6,52.1z M41.5,46.6c0.2,0,0.5,0.1,0.7,0.1c0,0,0.1,0,0.1,0  c0,0.2,0,0.4,0.1,0.6c-0.2,0-0.5-0.1-0.7-0.1c0-0.1,0-0.1-0.1-0.2C41.6,46.8,41.6,46.7,41.5,46.6z M43.2,46.9c0.2,0,0.4,0.1,0.6,0.1  c0,0.2,0,0.3,0,0.5c-0.2,0-0.4-0.1-0.6-0.1c0-0.1,0-0.2,0-0.3C43.2,47,43.2,47,43.2,46.9z M44.6,47.2c0.3,0.1,0.6,0.1,0.9,0.2  c0,0.1,0,0.2,0,0.3c-0.3-0.1-0.6-0.1-0.9-0.1C44.6,47.5,44.6,47.3,44.6,47.2z M46.3,47.6c0.4,0.1,0.8,0.2,1.2,0.3c0,0.1,0,0.1,0,0.2  c-0.4-0.1-0.8-0.2-1.2-0.2C46.3,47.8,46.3,47.7,46.3,47.6z M48.3,48.1c1,0.3,1.9,0.6,2.9,0.9c-0.9-0.3-1.9-0.5-2.9-0.7  C48.3,48.2,48.3,48.2,48.3,48.1z M63.7,55.5c0.2,0.1,0.4,0.3,0.5,0.4c0,0,0,0.1,0,0.1C64,55.8,63.8,55.6,63.7,55.5z M64.4,59.9  c-0.5-0.5-1-0.9-1.5-1.4c-0.9-0.9-1.7-1.7-2.7-2.5c-1.9-1.6-3.9-3.1-5.6-4.9c0.1,0,0.2,0.1,0.3,0.1c0.2,0.1,0.4,0.2,0.6,0.3  c0.4,0.3,0.8,0.6,1.2,0.9c0.9,0.7,1.8,1.4,2.7,2.1c1.1,0.9,2.3,1.7,3.3,2.8c0.5,0.5,1,1.1,1.6,1.5C64.3,59.2,64.3,59.6,64.4,59.9z   M64.4,69.5c0,0.3,0,0.5,0,0.8c-2.1-1.4-3.8-3.2-5.7-4.8c-1.8-1.5-3.7-3-5.6-4.4c-2.1-1.6-4.3-3.1-6.5-4.7c-1.2-0.8-2.4-1.7-3.5-2.6  c-0.7-0.6-1.6-1-2.3-1.6c0-0.4,0-0.8,0-1.2c4.1,3.5,8.7,6.5,13.1,9.6c2.5,1.7,4.8,3.6,7.1,5.6c0.8,0.7,1.6,1.5,2.4,2.3  C63.6,68.9,64,69.3,64.4,69.5z M64.1,75.8c0,0.3,0,0.6-0.1,0.9c-1.5-1.5-3.4-2.8-5.1-4c-2-1.5-4-3-5.9-4.5c-3.9-3-8-5.8-11.5-9.3  c3.2,3.2,7.6,6.1,11.5,8.8c2.1,1.5,4.3,2.9,6.3,4.4c1.1,0.8,2.3,1.6,3.3,2.6C63.2,75,63.6,75.4,64.1,75.8z M64,78.8  c0,0.3,0,0.5-0.1,0.8c-3.2-3.6-7.1-6.4-11.1-9.1c-0.5-0.3-1-0.7-1.4-1c0.4,0.3,0.9,0.6,1.3,0.9c2.2,1.4,4.3,3,6.5,4.6  C60.8,76.2,62.3,77.7,64,78.8z M63.2,87.2C63.2,87.2,63.2,87.2,63.2,87.2c-0.2,0.1-0.3,0.2-0.5,0.3c-1.1-1-2.2-2-3.3-3  c0,0,0.1,0,0.1,0.1c0.9,0.6,1.7,1.3,2.5,1.9C62.3,86.8,62.7,87.1,63.2,87.2z M62.3,87.7c-0.1,0.1-0.3,0.2-0.4,0.2  c-0.1,0-0.2-0.1-0.3-0.1c-2.7-2.7-6.1-4.8-9.2-6.9c-1.8-1.3-3.6-2.5-5.3-3.8c-0.9-0.7-1.9-1.3-2.8-2c-0.6-0.5-1.1-1-1.8-1.3  c0-0.5-0.1-1-0.1-1.6c1.4,1.2,3.1,2.1,4.5,3.3c1.7,1.5,3.4,3.1,5.3,4.5c1.9,1.5,3.8,3,5.8,4.5C59.4,85.7,60.8,86.8,62.3,87.7z   M61.2,88.2c-0.3,0.2-0.7,0.3-1,0.4c0,0,0,0,0,0c-1.2-1-2.6-1.7-3.9-2.6c-1.7-1.2-3.4-2.2-5-3.4c-1.6-1.1-3.2-2.2-4.8-3.3  c-0.8-0.5-1.6-1.1-2.3-1.7c-0.3-0.3-0.6-0.5-0.9-0.8c-0.9-1-0.4-0.5,0-0.2c1.6,1.1,3.1,2.4,4.7,3.6c1.6,1.2,3.3,2.2,5.1,3.2  c1.7,1,3.4,2,5.2,3.1C59,86.9,60.2,87.9,61.2,88.2z M60,88.7c-0.4,0.2-0.8,0.3-1.2,0.4c-2.8-1.8-5.5-3.9-8.3-5.6  c-1.5-0.9-3-1.8-4.3-2.9c1.5,1,3.1,1.8,4.7,2.7C53.9,85.2,57,87,60,88.7z M58.5,89.3c-0.4,0.1-0.9,0.3-1.4,0.4  c-0.2-0.1-0.3-0.2-0.5-0.3c0,0-0.1-0.1-0.2-0.1c-2.9-2.5-6.2-4.8-9.5-6.8c-0.8-0.5-1.6-1-2.4-1.6c1.2,0.8,2.5,1.6,3.8,2.4  C51.8,85.2,55.2,87.2,58.5,89.3z M56.9,89.7c-0.4,0.1-0.9,0.2-1.3,0.3c0,0,0,0,0-0.1c-0.2-0.2-0.4-0.3-0.6-0.5  c-0.1-0.1-0.2-0.3-0.4-0.4c-0.1-0.1-0.2-0.2-0.3-0.3c-0.6-0.5-1.2-1-1.8-1.5c-1.5-1.1-2.9-2.2-4.4-3.2c-1.1-0.7-2.4-1.4-3.5-2.3  c0.6,0.4,1.2,0.8,1.9,1.2c1.9,1.1,3.7,2.2,5.5,3.4c0.9,0.6,1.7,1.1,2.6,1.7c0.4,0.3,0.9,0.6,1.3,0.9c0,0,0.2,0.1,0.4,0.2  C56.5,89.4,56.7,89.6,56.9,89.7z M55.4,90.1c-0.3,0.1-0.6,0.1-0.9,0.2c0,0,0-0.1,0-0.1c-1-0.8-2-1.7-3-2.5c-1.4-1.2-2.9-2.1-4.5-3  c-0.7-0.4-1.5-0.9-2.2-1.4c-0.2-0.1-0.4-0.3-0.5-0.4c1.4,0.9,2.8,1.6,4.2,2.5c1.7,1,3.3,2.2,5,3.4c0.5,0.4,1.1,0.8,1.6,1.2  c0,0,0,0,0,0C55.2,89.9,55.3,90,55.4,90.1z M54.2,90.3c-0.3,0.1-0.7,0.1-1,0.1c-1.6-1.5-3.3-2.7-5.1-3.9c-0.4-0.3-0.7-0.5-1.1-0.8  c2.2,1.3,4.4,2.6,6.5,4.1c0.1,0.2,0.2,0.3,0.3,0.2C54,90.1,54.1,90.2,54.2,90.3z M52.9,90.5c-0.3,0-0.7,0.1-1.1,0.1  c-1.3-1.2-2.7-2.2-4.1-3.1c-0.8-0.5-1.5-0.9-2.2-1.5c-0.5-0.3-0.9-0.7-1.4-1.1c-0.1-0.1-0.2-0.2-0.2-0.2c0.1,0,0.2,0.1,0.3,0.2  c1.7,1,3.3,2,5,3C50.5,88.7,51.6,89.7,52.9,90.5z M51.5,90.6c-0.4,0-0.9,0.1-1.3,0.1c-2.1-1.9-4.8-3.1-6.6-5.3  c0.9,1,2.7,1.8,3.9,2.6C48.8,88.8,50.2,89.7,51.5,90.6z M49.7,90.7c-0.3,0-0.7,0-1,0c0,0,0,0,0,0c-0.7-0.7-1.5-1.3-2.3-1.9  c-0.6-0.4-1.2-0.8-1.7-1.3c-0.1-0.1-0.3-0.2-0.5-0.3c0.1,0,0.1,0.1,0.2,0.1c1.1,0.6,2.2,1.1,3.2,1.9C48.2,89.7,48.9,90.3,49.7,90.7z   M48.2,90.7c-0.9,0-1.8,0-2.8,0c0.1,0,0.1-0.1,0.1-0.2c-0.2-0.2-0.3-0.3-0.6-0.5c-0.2-0.1-1.2-1.1-0.6-0.7c0.8,0.5,1.5,1,2.3,1.4  c0.1,0,0.2,0,0.1-0.1c-0.4-0.7-1-1.1-1.6-1.6c-0.2-0.1-0.4-0.3-0.6-0.4c0.7,0.5,1.5,0.9,2.2,1.4C47.2,90.3,47.7,90.5,48.2,90.7z   M44.9,90.7c-0.1,0-0.2,0-0.3,0c-0.2,0-0.3,0-0.5,0c0,0,0,0,0-0.1c0,0,0-0.1,0-0.1c0.2,0,0.7,0.2,0.7,0.2  C44.8,90.7,44.9,90.7,44.9,90.7z M43.3,90.6c-2.2-0.2-4.3-0.4-6.4-0.8c0,0,0-0.1,0-0.1c-0.7-3.6-1-7.3-1.5-10.9  c-0.5-3.7-0.7-7.3-0.9-11c-0.2-3.6-0.4-7.1-0.7-10.7c-0.3-3.2-0.8-6.4-0.7-9.6c2.4,0,4.8,0.1,7.2,0.4c0,0,0,0,0,0.1  c-0.8,3.3-0.2,6.7,0.1,10.1c0.3,3.6,0.7,7.3,1,10.9c0.3,3.7,0.4,7.4,0.6,11.1c0.2,3.5,1,7,1.2,10.5C43.3,90.5,43.3,90.5,43.3,90.6z   M36.1,89.6c-0.2,0-0.5-0.1-0.7-0.1c0.2,0,0.4,0,0.7,0C36,89.5,36,89.5,36.1,89.6z M19.4,83c0.2,0.3,0.3,0.7,0.5,0.9  c0.2,0.3,0.8,0.4,1.1,0.5c1.6,0.4,3.2,0.9,4.8,1.5c1.6,0.5,3.2,1.2,4.8,1.7c1.3,0.4,2.7,0.7,4,1.2c1,0.4,1.1,0.7,0,0.4  c-0.6-0.2-1.3-0.5-1.9-0.8c-1.2-0.5-2.4-0.9-3.6-1.3c-2.3-0.8-4.7-1.3-7-2c-0.5-0.2-0.9-0.4-1.4-0.7c-0.2-0.1-0.4,0-0.5,0.1  c0,0-0.1,0-0.1,0C20,83.9,19.7,83.4,19.4,83z M29.6,87.4c1.4,0.5,2.7,1,4,1.5c0.3,0.1,0.6,0.3,0.9,0.4c-3.8-0.9-7.5-2.1-11.1-3.7  C25.5,86.2,27.6,86.7,29.6,87.4z M18.7,81.5c1.5,0.8,3.2,1.4,4.9,1.8c0.6,0.2,1.1,0.4,1.7,0.6c3.1,1.1,6.1,2.1,9.1,3.3  c0,0,1.5,0.5,0.7,0.3c-0.3-0.1-0.5-0.1-0.8-0.2c-0.7-0.2-1.3-0.5-2-0.7c-1.4-0.5-2.8-0.9-4.2-1.3c-2.8-0.8-5.7-1.7-8.5-2.6  c-0.1-0.1-0.2-0.1-0.2-0.1c-0.1,0-0.3-0.1-0.4-0.1C19,82,18.9,81.7,18.7,81.5z M17.9,79.4c0.8,0.6,1.8,1,2.7,1.4  c1.3,0.7,2.7,1.2,4.1,1.7c3.1,1.2,6.4,2,9.4,3.4c0.3,0.1,2.1,0.8,0.9,0.4c-0.8-0.3-1.5-0.5-2.3-0.8c-1.4-0.5-2.8-0.9-4.2-1.3  c-1.5-0.4-3.1-0.8-4.7-1.2c-1.8-0.6-3.5-1.3-5.3-2c-0.1-0.2-0.2-0.5-0.3-0.7C18.2,80,18,79.7,17.9,79.4z M17.4,77.8  c0.8,0.7,1.7,1.1,2.7,1.5c1.4,0.5,2.8,1.2,4.2,1.7c3.2,1.2,6.5,2.3,9.6,3.6c0.3,0.1,2.2,0.8,0.9,0.4c-0.8-0.3-1.6-0.6-2.4-0.9  c-1.6-0.6-3.2-1.1-4.8-1.6c-3.3-1.1-6.7-2.2-9.9-3.6C17.7,78.6,17.5,78.2,17.4,77.8z M17.7,78c0.2,0.1,0.3,0.2,0.5,0.2  C18,78.2,17.8,78.1,17.7,78z M16.5,73.7c5.1,3.2,11.2,4.1,16.5,6.7c0.3,0.1,0.6,0.3,0.8,0.4c-0.7-0.3-1.3-0.6-2-0.8  c-0.4-0.2-0.8-0.3-1.2-0.5c-4.6-1.9-9.6-3-14-5.3c0,0,0,0-0.1,0C16.6,74.1,16.5,73.9,16.5,73.7z M16.2,70.5c2.7,1,5.2,2.4,7.9,3.4  c2.7,1,5.4,2.1,8,3.4c0.3,0.1,0.5,0.3,0.8,0.4c-0.5-0.2-1-0.4-1.4-0.6c-1.9-0.7-3.8-1.4-5.7-2.1c-1.6-0.6-3.3-1.1-5-1.6  c-1.5-0.6-3-1.3-4.5-1.8C16.3,71.3,16.2,70.9,16.2,70.5z M16.2,69.7c0.6,0.3,1.3,0.5,1.9,0.7c0.5,0.2,1,0.4,1.4,0.7  c1.6,0.8,3.3,1.5,5,2.2c-1.1-0.4-2.1-0.7-3.2-1.1c-1.7-0.7-3.3-1.4-5.1-1.8C16.2,70.1,16.2,69.9,16.2,69.7z M16.3,68.1  c0.6,0.2,1.2,0.5,1.8,0.7c1.4,0.7,2.8,1.5,4.3,2c2.2,0.8,4.5,1.5,6.6,2.5c1.1,0.5,2.2,1.1,3.3,1.7c-1-0.5-2.1-1.1-3.2-1.5  c-1.8-0.7-3.6-1.3-5.5-1.8c-2-0.6-4-1.3-6-1.8c-0.4-0.2-0.9-0.4-1.3-0.5C16.2,69,16.2,68.5,16.3,68.1z M16.3,67.9c0-0.2,0-0.5,0-0.7  c1.6,0.8,3.3,1.5,4.9,2.3c1.6,0.7,3.2,1.3,4.8,1.9c1.7,0.6,3.3,1.3,5,1.9c0.9,0.3,1.9,0.7,2.7,1.2c0.5,0.3,0.5,0.2-0.1,0  c-0.6-0.2-1.2-0.5-1.7-0.7c-3.9-1.8-8.1-2.7-12-4.4c-0.7-0.3-1.4-0.7-2.2-1C17.3,68.2,16.8,68,16.3,67.9z M21.1,36.7  c0.1,0,0.2-0.1,0.2-0.2c0.3-0.5,0.7-1,1-1.4c1.3-1.1,2.7-2.2,4.1-3.3c2.2-1.2,4.6-2.1,7-2.9c2.6-0.8,5.1-1.3,7.8-1.1  c0.1,0,0.2,0,0.3,0c-1.3,0.7-2.6,1.8-3.5,2.9c-1,1.2-1.3,3,0.3,3.8c1.5,0.7,2.6-0.5,3.3-2.2c0,1.3,0.3,2.3,1.4,2.5  c2.5,0.6,1.4-4.3,1-6.7c1.8,0.4,3.6,1.1,5.4,1.9c2.3,1.1,4.6,2.4,6.5,4.2c1.6,1.6,2.9,3.6,3.8,5.7c2,4.5,3.9,9.7,4.4,14.7  c-3.1-2.4-6.6-4.3-10.3-5.7c0-0.4,0-0.8-0.3-1.1c-0.3-0.4-0.8-0.6-1.3-0.5c-0.4,0.1-0.6,0.4-0.6,0.8c-3.3-1.1-6.8-2-10.2-2.6  c-4.2-0.7-8.6-0.9-12.7,0.2c-3.6,1-7.4,1.6-10.8,3.2C18.4,44.8,19.3,40.7,21.1,36.7z M60.3,39.6c1.2,2.2,2,4.6,2.6,7  C62.1,44.2,61.3,41.8,60.3,39.6z M37.3,19.1c0.7-0.4,1.4-0.8,2.2-1.2c0,0,0,0,0,0c2,0.5,4,1,6.1,1.2c2.3,0.2,4.7,0.3,7,0.6  c3.9,0.6,7.5,2.1,10.5,4.7c3,2.6,5.3,6,6.1,9.9c0.8,4.2-0.4,8.1-1,12.3c-0.3,1.9-0.5,3.9-0.3,5.8c0.1,2,0.5,4.1,0.6,6.1  c0.3,4.2,0.1,8.4,0.6,12.5c0.4,3.3,0.9,6.7-0.4,9.9c-1,2.3-2.6,4.2-4.6,5.6c0.2-2.3,0.5-4.7,0.6-7c0.6-8.8,0.8-17.6,0-26.4  c-0.6-6.9-2.4-14.1-7.5-19.2c-3.4-3.4-8.2-6.3-13.1-7.5c0-0.1,0-0.1,0-0.2c-0.3-0.7-1-1.1-1.8-1.1c-0.6,0-1,0.4-1.1,0.8  c-1-0.1-1.9-0.1-2.9-0.1c-4.7,0.3-8.8,2.5-12.5,5.2c-1.1,0.7-2.2,1.4-3.1,2.3C26.2,27.6,31.4,22.6,37.3,19.1z M77.7,55.5  c0,0,0-0.1,0-0.1c0-0.2,0-0.5,0-0.7c0-2.6,0.2-5.1,0.5-7.7c0.9,4,0.7,8.2,1.4,12.3c0.4,2.5,1,5,0.9,7.6c-0.1,1.8-0.6,3.5-0.6,5.3  c0.1,1.7,0.7,3.5,2,4.5c0,0,0,0,0,0.1c1.3,2.5-1.3,3.1-3.3,3.9c0.3-0.7,0.4-1.4,0.6-2.1c0,0,0-0.1,0-0.1c-0.1-4-0.4-8.1-0.7-12.1  C78.3,62.7,77.8,59.1,77.7,55.5z M84.5,76.9c-1.5-0.2-2.5-0.9-3-1.9c0,0,0,0,0,0c0.7,0.6,1.3,1.3,2.2,1.5c0.1,0,0.2-0.1,0.1-0.2  c-0.8-0.7-1.7-1.4-2.3-2.3c-0.7-1.1,0.9,0.6,1.2,0.8c0.9,0.8,1.9,1.7,3.1,2C85.4,76.9,85,76.9,84.5,76.9z M87.8,55.4  c-2-1.6-4.6-2.3-6.8-3.6c-0.3-0.2-0.6-0.4-0.9-0.6c0.5,0.2,0.9,0.4,1.4,0.6c0.6,0.3,1.2,0.6,1.8,0.8c1.5,0.5,3,1,4.4,1.8  c0,0,0,0,0.1,0C87.7,54.8,87.8,55.1,87.8,55.4z M78.4,23c-2.6-2-5.5-3.7-8.4-5.3c0,0,0.1,0,0.1,0.1c0.9,0.4,1.8,0.9,2.7,1.3  c1.6,0.8,3.1,1.7,4.6,2.6C77.7,22.1,78,22.5,78.4,23z M68.1,16.9c1.9,1.3,4,2.3,6,3.5c1.1,0.7,2.3,1.4,3.3,2.2  c0.1,0.1,0.2,0.1,0.3,0.2c-2.1-1.3-4.3-2.5-6.5-3.7c-1.2-0.7-2.5-1.3-3.7-1.9c-0.3-0.1-0.5-0.3-0.8-0.5  C67.2,16.7,67.6,16.8,68.1,16.9z M79.4,24.7c-2-1.4-3.9-2.8-6-4c-2.3-1.3-4.7-2.5-6.9-3.9c-0.1,0-0.2-0.1-0.4-0.2c0,0,0.1,0,0.1,0  c0,0,0.1,0,0.1,0.1c0.2,0.1,0.4,0.3,0.6,0.4c0.6,0.3,1.2,0.7,1.9,1c1.2,0.6,2.4,1.3,3.6,2c2.1,1.2,4.3,2.4,6.3,3.7  c0.1,0.1,0.1,0.1,0.1,0.1C79,24,79.2,24.3,79.4,24.7z M80,25.8c-2.8-1.2-5.4-2.6-8-4c-0.5-0.6-1-1.1-1.6-1.6  c0.6,0.4,1.2,0.8,1.9,1.2c1.4,0.8,2.8,1.5,4.2,2.2c1.1,0.5,2.1,1.3,3.2,1.7C79.8,25.4,79.9,25.6,80,25.8z M60.9,5.8  c-0.8-0.4-1.7-0.7-2.4-1.2c-0.7-0.5,0.4,0.2,0.6,0.3c0.2,0.1,0.5,0.2,0.7,0.3c0.3,0.1,0.6,0.2,0.9,0.2C60.7,5.5,60.8,5.6,60.9,5.8z   M57.9,4.4C58.8,5.2,60,5.5,61.1,6c0,0,0.1,0.1,0.1,0.1C60.9,6.1,60.7,6,60.6,6c-0.4-0.1-0.8-0.3-1.2-0.5c-0.7-0.3-1.3-0.5-2-0.7  c0,0,0,0,0,0C57.6,4.7,57.7,4.5,57.9,4.4z M61.5,6.8c-1-0.6-2.2-0.9-3.2-1.4c-0.9-0.5-0.2-0.2,0.3,0c0.4,0.2,0.8,0.3,1.2,0.5  c0.5,0.2,1,0.3,1.5,0.4C61.3,6.5,61.4,6.7,61.5,6.8z M62.2,8.1c-0.5-0.2-1-0.3-1.5-0.5c-0.2-0.3-0.4-0.6-0.6-0.8  c0.6,0.3,1.2,0.5,1.8,0.7C62,7.7,62.1,7.9,62.2,8.1z M56.7,5.7c0.4,0.2,0.8,0.4,1.2,0.6c0.1,0.1,0.2,0.1,0.2,0.2c-0.1,0-0.1,0-0.2,0  c0,0-0.1,0-0.1,0c-0.5-0.2-0.9-0.4-1.4-0.3C56.5,6,56.6,5.8,56.7,5.7C56.7,5.7,56.7,5.7,56.7,5.7z M56.3,6.5  c0.5,0.4,0.3,0.5-0.3,0.7c-0.1,0,0,0.2,0,0.2c-0.1,0.1-0.2,0.1-0.3,0.2C55.9,7.2,56.1,6.8,56.3,6.5z M49.6,13.2  c-0.1-0.1-0.9-0.5-0.9-0.5c0.8-0.1,1.6,0.4,2.3,0.6c0,0.1,0,0.1,0,0.2c-0.3,0-0.6,0.1-0.9,0.1C50,13.4,49.8,13.3,49.6,13.2z   M51.9,13.4c-0.1-2.1,1.6-3.2,3.2-4.3c0.9-0.6,3.1-2.5,4.3-1.6c1.8,1.4,1.3,5.1,1.3,7.1C57.8,13.6,54.8,13.2,51.9,13.4z M64.1,14.7  c-0.3-0.2-0.6-0.3-0.9-0.5c-0.2-0.1-0.4-0.2-0.6-0.3c-0.1-0.2-0.2-0.4-0.2-0.6c0.6,0.2,1.1,0.6,1.8,0.8  C64.2,14.2,64.2,14.5,64.1,14.7z M62.7,12.8c-0.8-0.5,0.7-0.1,0.9,0c0.3,0.1,0.5,0.2,0.8,0.3c0,0,0,0,0,0c0,0.2,0,0.5-0.1,0.7  C63.8,13.4,63.2,13.1,62.7,12.8z M63.1,12.4c0.2,0.1,0.5,0.2,0.7,0.4C64.4,13.1,63.6,12.7,63.1,12.4z M62.4,11.8  c-1.1-0.8,1,0.1,1.2,0.2c0.3,0.1,0.5,0.2,0.7,0.2c0,0.2,0,0.4,0,0.6C63.7,12.4,63,12.2,62.4,11.8z M63.6,15.7c0,0,0-0.1,0-0.1  c-0.2-0.2-0.5-0.3-0.7-0.5c-0.3-0.1-0.5-0.3-0.8-0.5c0.3,0,0.6-0.1,0.8-0.1c0.4,0.2,0.7,0.3,1.2,0.4c-0.1,0.3-0.1,0.6-0.2,0.9  C63.8,15.8,63.7,15.8,63.6,15.7z M61.4,14.8c0-0.1,0.1-0.1,0.1-0.2c0-1.4,0.3-4.5-0.6-6.5c0.6,0.4,1.4,0.7,2,1.2c0,0,0,0,0,0  c0,0,0.1,0.1,0.1,0.1c-0.2-0.1-0.5-0.3-0.7-0.4c-0.3-0.2-0.7-0.2-1-0.3c-0.1,0-0.2,0.1-0.1,0.2c0.6,0.6,1.6,0.9,2.3,1.3  c0.1,0.1,0.1,0.2,0.2,0.3c-0.5-0.2-1.1-0.4-1.3-0.5c-0.3-0.1-0.5-0.1-0.8-0.2c-0.1,0-0.1,0.1-0.1,0.2c0.5,0.7,1.3,1,2,1.5  c1.3,0.9-0.2,0.1-0.6-0.1c-0.4-0.2-0.8-0.3-1.2-0.4c-0.1,0-0.2,0.1-0.1,0.1c0.2,0.4,0.6,0.6,0.9,0.8c0,0,0,0,0,0  C62.2,12,62,12,61.7,11.9c-0.1,0-0.1,0.1-0.1,0.2c0.5,0.7,1.3,1,1.9,1.4c-0.4-0.3-1.1-0.5-1.6-0.5c-0.1,0-0.1,0.1-0.1,0.1  c0.3,0.8,1.1,1.1,1.8,1.5c0.8,0.5-0.9-0.4-1.1-0.4c-0.4-0.1-0.6-0.2-1-0.1c-0.1,0-0.1,0.1-0.1,0.1c0.2,0.4,0.5,0.6,0.8,0.8  c0,0-0.1,0-0.1,0c0,0-0.1,0-0.1,0C62,15,61.7,14.9,61.4,14.8z M56.7,6.5c0.2-0.1,0.5-0.1,0.7,0c0.1,0,0.1,0,0.2,0.1  c-0.2,0.1-0.4,0.1-0.6,0.2C57,6.7,56.9,6.7,56.7,6.5z M51.1,12.8c-0.2-0.1-0.3-0.2-0.5-0.2c-0.3-0.1-0.6-0.2-0.8-0.4  c-0.1-0.1-0.6-0.4-0.7-0.4c0.7-0.1,1.4,0.3,2.1,0.4C51.1,12.4,51.1,12.6,51.1,12.8z M51.3,11.9c-0.6-0.3-1.4-0.5-1.7-1.1  c0,0.1,1.3,0.4,1.4,0.5c0.1,0,0.3,0.1,0.4,0.1C51.4,11.5,51.3,11.7,51.3,11.9z M49.7,10.6c0.3-0.1,0.6-0.2,0.9-0.3  c0.1,0.1,0.3,0.2,0.4,0.3c0.1,0,0.4,0.3,0.6,0.5c0,0,0,0.1-0.1,0.1C50.9,11.1,50.4,10.7,49.7,10.6z M50.9,10.2  c0.4,0.1,0.7,0.3,1.1,0.3c-0.1,0.1-0.2,0.2-0.3,0.4c-0.1,0-0.1-0.1-0.2-0.1C51.4,10.6,51.1,10.3,50.9,10.2  C50.9,10.2,50.9,10.2,50.9,10.2z M57.3,5.8c0.1,0,0.1,0,0.2,0.1C57.8,5.9,58,6,58.3,6.1c0.3,0.1,0.6,0.3,0.9,0.4c-0.1,0-0.2,0-0.4,0  c-0.1,0-0.2,0-0.4,0C58.1,6.2,57.8,6,57.3,5.8C57.4,5.8,57.3,5.8,57.3,5.8z M62.7,8.9c-0.4-0.3-0.8-0.5-1.3-0.7  c-0.2-0.1-1.1-0.5,0-0.2c0.3,0.1,0.6,0.2,0.9,0.3C62.5,8.6,62.6,8.7,62.7,8.9z M63.4,10c-0.4-0.2-0.8-0.4-1.2-0.7  c-0.8-0.5-0.4-0.3,0.3,0c0.2,0.1,0.4,0.2,0.6,0.2C63.2,9.7,63.3,9.9,63.4,10z M64,11.1c0.1,0.3,0.2,0.5,0.3,0.8  c-0.7-0.5-1.5-0.8-2.1-1.4c0.3-0.1,0.6,0,0.9,0.2c0.2,0.1,0.5,0.3,0.7,0.4C63.8,11,63.9,11,64,11.1z M79.3,48.2c0.9,0.8,2.1,1.3,3,2  c1.5,1.1,3.1,1.9,4.5,3c1.2,0.9-0.1,0-0.4-0.2c-0.3-0.2-0.6-0.4-0.9-0.6c-0.7-0.4-1.4-0.7-2.1-1.1c-1.3-0.7-2.5-1.3-3.8-2  C79.4,49,79.4,48.6,79.3,48.2z M87.6,53.6c-2.2-1.8-4.7-3.3-7-4.8c0.1,0.1,0.3,0.1,0.4,0.2c0.7,0.4,1.4,0.8,2.1,1.2  c1.4,0.8,2.9,1.6,4.4,2.2C87.5,52.8,87.6,53.2,87.6,53.6z M79,46.7c2.5,1.7,5.1,3.2,7.5,5c0.2,0.1,1.3,0.7,0.2,0.2  c-0.5-0.2-0.9-0.4-1.3-0.7c-0.7-0.4-1.5-0.8-2.2-1.2c-1.3-0.7-2.7-1.4-4-2.2C79.1,47.5,79.1,47.1,79,46.7z M78.5,45.1  c0.7,0.6,1.6,1.1,2.4,1.5c0.7,0.5,1.4,1.1,2.1,1.6c1.1,0.7,2.4,1.3,3.4,2.1c0.1,0.1,0.1,0.1,0.2,0.2c-0.5-0.3-1-0.6-1.6-0.9  c-2-1.1-4.2-2-6.2-3.2C78.8,46,78.7,45.5,78.5,45.1z M87.2,50.8c-1.2-1.2-2.7-1.8-4.1-2.8c-0.1-0.1-0.2-0.1-0.2-0.2  c1.3,0.9,2.7,1.8,4.2,2.3C87.1,50.4,87.2,50.6,87.2,50.8z M86.6,47.7c-1-1-2.2-1.5-3.4-2.2c-1-0.6-2-1.3-3.1-2  c0.9,0.4,1.8,0.7,2.6,1.2c1.1,0.6,2.2,1.2,3.3,1.7c0.1,0.1,0.2,0.2,0.3,0.1c0,0,0.1,0,0.1,0.1C86.4,47,86.5,47.3,86.6,47.7z   M86,45.3c-0.1,0-0.2-0.1-0.3-0.2c-1.3-0.7-2.5-1.4-3.8-2.1c-1.1-0.6-2.1-1.4-3.3-1.9c0-0.2,0-0.5,0-0.7c1.4,0.8,2.7,1.8,4.1,2.6  c0.6,0.3,1.2,0.7,1.8,1c0.5,0.3,0.9,0.6,1.3,1C85.9,45.1,85.9,45.2,86,45.3C86,45.2,86,45.2,86,45.3z M85.4,43.1  c-0.1,0-0.3-0.2-0.7-0.3c-0.3-0.1-0.5-0.3-0.8-0.4c-0.6-0.4-1.2-0.8-1.9-1.2c-1.1-0.7-2.4-1.2-3.6-1.8c0-0.3,0-0.5,0-0.8  c0.8,0.8,1.7,1.3,2.6,1.8c1.2,0.6,2.4,1.3,3.5,2.1C84.8,42.5,85.2,42.8,85.4,43.1C85.4,43,85.4,43,85.4,43.1  C85.4,43.1,85.4,43.1,85.4,43.1z M81.4,36.8c0.4,0.3,0.8,0.6,1.3,0.9c-0.8-0.4-1.5-0.8-2.2-1.2c-0.7-0.5-1.4-1-2.2-1.3  c0-0.2-0.1-0.4-0.1-0.6c0,0,0,0,0,0c0,0.1,0.1,0.1,0.2,0.1C79.4,35.4,80.4,36.1,81.4,36.8z M78.3,35.5c1,0.7,2.1,1.5,3.2,2.2  c1.1,0.6,2,1.1,2.9,2c0.1,0.1,0.2,0.2,0.2,0.2c0,0-0.2-0.2-0.4-0.3c-0.3-0.1-0.6-0.3-0.9-0.4c-0.6-0.3-1.2-0.6-1.7-1  c-1-0.6-2.1-1.2-3.2-1.8C78.4,36.1,78.3,35.8,78.3,35.5z M78.4,36.8c1.8,1.7,4.4,2.5,6.2,4.2c0.8,0.8-0.6-0.2-0.8-0.4  c-0.7-0.4-1.4-0.6-2-1c-1.1-0.7-2.2-1.4-3.3-2.1C78.5,37.3,78.4,37.1,78.4,36.8z M79,38.2c-0.2-0.1-0.3-0.1-0.5-0.1  c0-0.1,0-0.1,0-0.2C78.7,38,78.8,38.1,79,38.2z M78.6,39.6c0.9,0.6,1.9,1,2.8,1.6c1.3,0.9,2.6,1.7,3.8,2.5c0.8,0.6-0.3-0.2-0.4-0.2  c-0.3-0.1-0.5-0.3-0.8-0.4c-0.7-0.4-1.3-0.8-1.9-1.1c-1.1-0.7-2.3-1.3-3.5-1.8C78.6,40,78.6,39.8,78.6,39.6z M78.5,41.5  c1.6,1.8,4.1,2.7,6.1,4c0,0,0.1,0,0.1,0.1c-0.2-0.1-0.4-0.2-0.6-0.3c-1.3-0.7-2.7-1.5-4.1-2c-0.4-0.2-0.9-0.4-1.3-0.6c0,0,0,0,0,0  c-0.1-0.1-0.2-0.1-0.2-0.2C78.5,42.1,78.5,41.8,78.5,41.5z M86.2,47.5c-0.3-0.2-0.6-0.3-0.9-0.5c-0.8-0.4-1.5-0.9-2.3-1.3  c-1.5-0.8-3-1.7-4.5-2.5c0-0.2,0-0.4,0-0.6c0.1,0,0.1,0.1,0.2,0.1c0,0,0,0,0,0c0.4,0.3,0.8,0.5,1.3,0.8c0.7,0.4,1.4,0.9,2.1,1.4  c1.1,0.8,2.3,1.2,3.4,2C85.1,46.7,86.8,47.8,86.2,47.5z M78.4,43.5c1.6,1.5,3.7,2.3,5.5,3.5c0.6,0.4,1.2,0.8,1.8,1.2  c0.3,0.2,1.7,1.1,0.6,0.5c-1.1-0.6-2.2-1.3-3.2-2c-0.9-0.6-1.9-1.1-2.9-1.7c-0.6-0.4-1.2-0.8-1.8-1.2C78.4,43.8,78.4,43.7,78.4,43.5  z M83.9,47.8c1,0.8,2.2,1.3,3.1,2.1c-0.4-0.3-1.4-0.6-2-1c-0.5-0.3-1-0.6-1.5-1c-0.9-0.6-1.7-1.2-2.6-1.7c-0.8-0.6-1.6-1.1-2.5-1.6  c0-0.2,0-0.4,0-0.5c0.5,0.4,1,0.7,1.6,1c0.2,0.1,0.3,0.2,0.5,0.3C81.7,46.3,82.8,47,83.9,47.8z M77.8,33.1c1.7,1.3,3.7,2.1,5.3,3.5  c0.2,0.2,0.4,0.4,0.6,0.6c-0.3-0.2-0.6-0.3-0.8-0.5c-0.5-0.3-1-0.6-1.6-0.9c-1.1-0.6-2.2-1-3.3-1.6c0-0.1,0-0.3-0.1-0.4  C77.9,33.6,77.9,33.3,77.8,33.1z M77.6,32.1c1.1,0.6,2.2,1.4,3.3,2c0.8,0.5,1.7,0.9,2.5,1.5c0,0,0,0,0,0c-0.7-0.5-1.5-0.8-2.3-1.1  c-1.2-0.5-2.2-1.1-3.3-1.8C77.7,32.6,77.7,32.3,77.6,32.1z M83.3,35.4c-0.4-0.4-0.9-0.7-1.5-0.9c-1.1-0.6-2.1-1.3-3.1-1.9  c0.1,0,0.1,0.1,0.2,0.1c0.5,0.2,1,0.4,1.5,0.7c0.9,0.5,1.7,1,2.6,1.3C83.1,34.8,83.2,35.1,83.3,35.4z M77.3,31  c1.5,1.2,3.5,1.7,5.1,2.9c0.1,0,0.4,0.2,0.6,0.4c0,0,0,0.1,0,0.1c-0.1,0-0.1,0-0.2-0.1c-0.4-0.1-0.7-0.3-1.1-0.5  c-0.5-0.3-1-0.6-1.5-0.8c-0.9-0.4-1.7-0.8-2.6-1.2C77.4,31.5,77.4,31.3,77.3,31z M76.8,29.6c1.2,1.1,2.8,1.7,4.2,2.3  c0,0,2,1.1,0.8,0.6c-0.7-0.2-1.3-0.5-2-0.8c-0.9-0.4-1.8-0.8-2.7-1.2C77,30.2,76.9,29.9,76.8,29.6z M76.3,28.5  c1.4,1.2,3.4,1.9,4.9,2.8c0.2,0.1,0.4,0.2,0.7,0.3c-0.3-0.1-0.6-0.3-0.9-0.4c-0.6-0.3-1.1-0.5-1.7-0.8c-0.9-0.5-1.8-0.9-2.8-1.3  C76.5,28.9,76.4,28.7,76.3,28.5z M75.7,27.1c1.6,1.4,3.8,1.9,5.6,3.1c1.5,1-0.7-0.1-1-0.3c-0.5-0.3-1-0.6-1.6-0.8  c-0.9-0.4-1.8-0.7-2.6-1.3C75.9,27.6,75.8,27.3,75.7,27.1z M81.7,30.3c-1.5-1.3-3.7-1.7-5.3-2.9c-1.5-1.1,0.2-0.1,0.6,0.2  c0.5,0.3,1.1,0.6,1.6,0.9c1,0.5,1.9,1,3,1.3C81.6,29.9,81.7,30.1,81.7,30.3z M75,25.8c2,1.2,4.2,2.1,6.1,3.4c0.9,0.6-0.2,0.1-0.5,0  c-0.7-0.3-1.4-0.6-2-0.9c-1.1-0.6-2.1-1.1-3.2-1.6c0,0,0,0,0,0C75.3,26.4,75.1,26.1,75,25.8z M74,24.3c2.3,1.4,4.8,2.5,7,4l0,0  c-1-0.6-2.5-1.4-3.7-1.9c-0.9-0.4-1.8-0.9-2.7-1.2C74.4,24.9,74.2,24.6,74,24.3z M72.6,22.4c2.2,1.4,4.5,2.6,6.9,3.5  c0,0,0.5,0.2,0.8,0.4c0,0,0,0,0,0.1c-0.1,0-0.2-0.1-0.3-0.1c-0.3-0.1-0.6-0.2-0.9-0.3c-0.8-0.3-1.6-0.7-2.3-1  c-1.1-0.5-2.1-0.9-3.2-1.3C73.2,23.2,72.9,22.8,72.6,22.4z M77,24.7c-0.5-0.3-1-0.5-1.5-0.8c0.2,0.1,0.3,0.2,0.5,0.2  c0.8,0.4,1.5,0.8,2.3,1.1C77.8,25.1,77.4,24.9,77,24.7z M80.9,28.1c-2.3-1.5-4.9-2.7-7.2-4.1c0,0,0,0,0,0c1,0.6,2.6,1,3.7,1.5  c1,0.4,1.9,0.8,2.9,1.2C80.6,27.1,80.8,27.6,80.9,28.1z M81.4,29.2c-2.1-1.4-4.5-2.3-6.6-3.7c0,0,0,0,0,0c0.7,0.5,2.3,1.1,3.3,1.5  c1,0.5,2,1,3,1.5C81.2,28.7,81.3,29,81.4,29.2z M82.1,31.5c-1-0.6-2.1-1.3-3.1-1.8c-0.9-0.4-2-0.9-2.8-1.6c0,0,0,0,0,0  c0.8,0.6,1.9,0.9,2.8,1.4c1,0.5,1.9,1,2.9,1.4C82,31.1,82,31.3,82.1,31.5z M82.4,32.4c-1.7-1.1-3.9-1.5-5.4-2.9  c-0.7-0.6,0.8,0.3,1,0.4c0.6,0.3,1.1,0.5,1.7,0.8c0.8,0.4,1.7,0.8,2.6,1.2C82.3,32,82.3,32.2,82.4,32.4z M82.8,34  c-0.7-0.5-1.4-1.1-2.2-1.5c-1-0.5-2.2-0.9-3.2-1.6c-0.6-0.5,0.5,0.3,0.6,0.3c0.2,0.1,0.3,0.1,0.5,0.2c0.7,0.3,1.3,0.6,1.9,0.8  c0.7,0.3,1.3,0.5,2,0.7C82.6,33.3,82.7,33.6,82.8,34z M83.7,36.8c-1.2-1-2.5-1.8-3.8-2.6c0.1,0.1,0.3,0.1,0.4,0.2  c1.1,0.5,2.2,0.9,3.2,1.6C83.5,36.3,83.6,36.6,83.7,36.8z M84.2,38.4c-0.9-0.6-1.8-1.1-2.7-1.7c-0.8-0.6-1.5-1.2-2.3-1.7  c0.1,0.1,0.3,0.1,0.4,0.2c0.6,0.3,1.2,0.5,1.7,0.8c0.9,0.5,1.7,1,2.6,1.4C84,37.7,84.1,38.1,84.2,38.4z M84.5,39.5  c-0.6-0.6-1-1.1-1.8-1.5c-1.2-0.6-2.3-1.3-3.4-2.1c0,0-1.3-0.8-0.5-0.3c0.2,0.1,0.4,0.3,0.6,0.4c0.4,0.3,0.8,0.6,1.3,0.8  c1.2,0.6,2.4,1.2,3.6,1.9C84.3,39,84.4,39.2,84.5,39.5z M84.9,41.1c-1.7-1.6-3.9-2.5-5.7-3.9c0.2,0.2-0.5-0.3-0.8-0.6c0,0,0,0,0-0.1  c0,0,0,0,0,0c0.3,0.2,0.6,0.3,0.9,0.5c0.6,0.3,1.2,0.7,1.7,1c1.2,0.7,2.4,1.4,3.6,1.9C84.7,40.4,84.8,40.7,84.9,41.1z M85.1,41.8  c-0.1-0.1-0.1-0.1-0.2-0.2c0.1,0,0.1,0,0.2,0.1C85.1,41.7,85.1,41.7,85.1,41.8z M85.3,42.7c-0.9-0.8-1.9-1.5-3-2  c-1.3-0.6-2.8-1.2-3.7-2.3c0.1,0.1,1.1,0.4,1.3,0.5c0.2,0.1,0.4,0.3,0.7,0.5c0.6,0.4,1.1,0.7,1.7,1c1.1,0.5,2,1.1,2.9,1.8  C85.2,42.3,85.3,42.5,85.3,42.7z M85.6,43.8c-0.9-0.7-2-1.2-2.9-1.9c-0.7-0.5-1.3-1-2-1.3c-0.6-0.3-1.2-0.5-1.7-0.9  c-0.7-0.5,0.6,0.3,0.6,0.3c0.3,0.1,0.6,0.3,0.9,0.4c0.7,0.3,1.3,0.7,2,1.1c1,0.7,2,1.4,3.1,1.8C85.5,43.4,85.6,43.6,85.6,43.8z   M85.9,44.9c-0.7-0.6-1.6-1.1-2.4-1.6c-1.3-0.7-2.5-1.6-3.8-2.4c0.1,0,0.2,0.1,0.3,0.1c0.7,0.3,1.3,0.7,2,1.1c1.2,0.7,2.4,1.5,3.8,2  C85.8,44.4,85.8,44.7,85.9,44.9z M86.2,46.3c-1.2-0.7-2.3-1.6-3.6-2.3c-1.3-0.7-2.8-1.4-3.9-2.5c-0.7-0.7,0.5,0.1,0.6,0.2  c0.4,0.2,0.8,0.5,1.2,0.8c0.6,0.4,1.3,0.7,1.9,1c1.2,0.6,2.3,1.4,3.5,1.9C86.1,45.7,86.2,46,86.2,46.3z M86.8,48.8  c-2.1-1.7-4.5-2.8-6.8-4.3c-0.5-0.3-0.9-0.6-1.4-1c0.3,0.2,0.6,0.4,1,0.6c0.8,0.4,1.6,0.9,2.3,1.3c1.5,0.8,3.1,1.7,4.6,2.6  c0,0,0.1,0,0.1,0C86.7,48.2,86.7,48.5,86.8,48.8z M87,49.7c-0.7-0.6-1.5-1.2-2.3-1.7c0.7,0.4,1.5,0.9,2.2,1.2  C86.9,49.4,87,49.5,87,49.7z M87.4,52.1c-2.1-1.6-4.4-3-6.6-4.4c0.7,0.3,1.4,0.7,2.1,1c1.5,0.7,3,1.5,4.4,2.5  C87.3,51.5,87.4,51.8,87.4,52.1z M87.7,54.2c-1.1-0.7-2.3-1.1-3.6-1.5c-1.5-0.5-2.9-1.3-4.4-1.9c0-0.4-0.1-0.8-0.2-1.2  c1.5,0.8,3,1.6,4.6,2.4c1.1,0.6,2.2,1.6,3.5,1.8c0,0,0,0,0.1,0C87.7,54,87.7,54.1,87.7,54.2z M81.4,66.3c0-0.3,0-0.5,0-0.8  c1.1,0.9,2.3,1.7,3.6,2.5c0.8,0.4,1.5,0.9,2.3,1.4c0.5,0.3,1.3,1.1,1.8,1.3v0C86.2,69.9,84,67.6,81.4,66.3z M88.7,69  c-0.2,0-1.3-0.7-1.6-0.8c-0.7-0.3-1.4-0.7-2.1-1.1c-1.1-0.7-2.3-1.4-3.6-1.8c0,0,0,0,0,0c0-0.3,0-0.7-0.1-1c2,1.9,4.8,2.6,7,4.3  C88.5,68.7,88.6,68.9,88.7,69C88.7,68.9,88.7,69,88.7,69z M81.1,62.9c2.1,1.6,4.5,2.5,6.7,4.1c1,0.7-0.5-0.3-0.7-0.4  c-0.7-0.4-1.5-0.7-2.3-1.1c-1.2-0.5-2.3-1-3.5-1.5C81.2,63.6,81.2,63.2,81.1,62.9z M80.9,61.8c1.4,0.5,2.6,1.3,3.9,2  c0.6,0.4,1.2,0.6,1.8,1c0.4,0.2,0.9,0.7,1.3,0.8c-2.4-0.8-4.4-2.5-6.9-3.1C81,62.3,81,62.1,80.9,61.8z M80.7,60.8  c1.2,0.6,2.4,1.2,3.5,1.9c1,0.5,2.1,1.5,3.2,1.9c-1.3-0.4-2.3-1.3-3.5-1.8c-0.9-0.5-2-0.8-3-1.1C80.8,61.3,80.8,61,80.7,60.8z   M87.9,60.2c0,0.2,0,0.5,0,0.7c-1.3-0.9-2.8-1.5-4.2-2.3c-0.1-0.1-0.2-0.1-0.4-0.2C84.9,58.9,86.4,59.5,87.9,60.2z M82.1,57.8  c0.1,0.1,0.2,0.1,0.3,0.2c0.5,0.3,1.1,0.6,1.6,0.9c1.1,0.6,2.3,1.1,3.4,1.8c-1-0.6-2.4-1.1-3.5-1.5c-1.2-0.5-2.4-1.1-3.7-1.6  c0-0.2,0-0.4-0.1-0.7c0.1,0,0.2,0.1,0.2,0.1c0,0.1,0.1,0.2,0.6,0.3C81.3,57.5,81.7,57.7,82.1,57.8z M80.4,58  c2.5,1.1,4.9,2.3,7.5,3.2c0,0.1,0,0.3,0,0.4c-0.1-0.1-0.2-0.1-0.3-0.2c0-0.1-0.1-0.1-0.4-0.2C85,60.1,82.7,59,80.4,58z M87.9,62.4  c-1-0.7-2.2-1.1-3.3-1.7c-1.1-0.6-2.2-1.2-3.3-1.8c0.2,0.1,0.4,0.1,0.5,0.2c0.8,0.3,1.5,0.6,2.2,0.9c1.3,0.6,2.6,1.2,3.9,1.9  C87.9,62.1,87.9,62.2,87.9,62.4z M80.3,58.5c0-0.2-0.1-0.4-0.1-0.5c0.5,0.4,1,0.7,1.5,1C81.3,58.7,80.8,58.6,80.3,58.5z M87.9,63.5  c-1-0.8-2.2-1.3-3.3-1.8c1.1,0.4,2.1,0.8,3.3,1C87.9,63,87.9,63.2,87.9,63.5z M81.4,60.2c1.1,0.6,2.1,1.2,3.2,1.7  c0.7,0.3,1.3,0.6,2,1c0.2,0.1,1.4,0.8,0.5,0.3c-2-1.1-4.3-1.9-6.5-2.7c0-0.2-0.1-0.4-0.1-0.6C80.8,60,81.1,60.1,81.4,60.2z M88,64.6  c-1.2-0.8-2.4-1.5-3.7-2.2c-0.6-0.3-1.2-0.7-1.9-1c0.7,0.3,1.4,0.5,2.2,0.8c1.2,0.4,2.2,1.1,3.3,1.5C88,64.1,88,64.3,88,64.6z   M80.4,58.8c1.4,0.6,2.8,1.4,4.1,2.1c0.6,0.4,1.3,0.6,2,0.9c0.3,0.2,0.8,0.5,1.1,0.6c-1.3-0.3-2.4-0.8-3.6-1.3  c-0.7-0.3-1.4-0.6-2.1-1c0,0-0.2-0.1-0.4-0.2c-0.3-0.2-0.6-0.3-1-0.5C80.4,59.3,80.4,59,80.4,58.8z M80.1,56.1  c0.3,0.1,0.6,0.2,0.9,0.3c1.2,0.5,2.2,1.2,3.3,1.9c0.4,0.2,0.8,0.4,1.2,0.6c-0.3-0.1-0.6-0.2-0.9-0.3c-0.8-0.3-1.5-0.6-2.3-0.9  c-0.7-0.4-1.4-0.7-2.2-1c0-0.1,0-0.3,0-0.4C80.1,56.3,80.1,56.2,80.1,56.1z M80,54.7c0.2,0.1,0.4,0.2,0.6,0.3c0,0,0,0,0,0  c1.4,0.6,2.7,1.3,4,2.1c0.6,0.4,1.3,0.7,2,1.1c0.4,0.2,1.8,1,0,0.2c-1.1-0.5-2.3-1-3.5-1.4c-0.6-0.2-1.2-0.5-1.8-0.6  c-0.1,0-0.2,0-0.3-0.1c-0.3-0.1-0.6-0.2-1-0.3C80,55.5,80,55.1,80,54.7z M80,54.5c0-0.4,0-0.7-0.1-1.1c2.5,1.5,5.1,2.8,7.7,4.1  c-1.2-0.6-2.4-1.1-3.7-1.5c-0.8-0.3-1.5-0.5-2.3-0.8c-0.3-0.1-0.6-0.2-0.9-0.3c-0.3-0.1-0.4-0.2-0.5-0.2  C80.2,54.6,80.1,54.6,80,54.5z M79.8,52.5c1,0.7,2.2,1.2,3.3,1.6c0.7,0.3,1.4,0.6,2.1,1c-0.4-0.2-0.8-0.4-1.2-0.5  c-1.3-0.6-2.7-1-4.1-1.4c0,0,0,0,0,0C79.9,53,79.9,52.7,79.8,52.5z M80.4,52.6c0.8,0.5,2.2,0.8,3.2,1.1c1.5,0.5,2.9,1.2,4.3,1.9  c0,0.1,0,0.3,0,0.4c0,0,0,0.1,0,0.1c-0.1-0.1-0.2-0.1-0.3-0.1c0-0.1-0.1-0.1-0.2-0.1c-1.1-0.6-2.2-1.2-3.3-1.7  C82.8,53.8,81.5,53.4,80.4,52.6z M87.9,57.5c-2.1-1.6-4.8-2.6-7-3.8c-0.2-0.1-0.3-0.2-0.4-0.2c0.1,0,0.2,0.1,0.4,0.1  c0.3,0.1,0.6,0.2,0.9,0.3c0.6,0.2,1.2,0.4,1.8,0.7c1.4,0.6,2.9,1.3,4.3,1.9C87.9,56.9,87.9,57.2,87.9,57.5z M87.9,58.8  c-1.2-0.9-2.6-1.6-4-2.4c-0.5-0.3-0.9-0.5-1.4-0.7c1.8,0.6,3.6,1.3,5.4,2.2C87.9,58.1,87.9,58.5,87.9,58.8z M79.7,51.1  c2.1,1.8,4.9,2.3,7.2,3.8c0.2,0.1,1.5,0.8,0.3,0.2c-0.3-0.2-0.6-0.3-0.9-0.4c-0.6-0.3-1.2-0.6-1.8-0.8c-1.5-0.6-3.2-0.9-4.6-1.6  c0,0,0,0-0.1,0C79.8,51.9,79.8,51.5,79.7,51.1z M87.9,60c-0.1,0-0.1-0.1-0.2-0.1c0-0.1-0.1-0.1-0.3-0.2c-1.3-0.7-2.6-1.3-3.8-2  c-0.4-0.3-0.9-0.6-1.3-0.8c0.6,0.2,1.1,0.4,1.7,0.6c1.3,0.5,2.5,1.2,3.8,1.5c0,0,0,0,0.1,0C87.9,59.3,87.9,59.7,87.9,60z M88.1,65.5  c-0.9-0.7-1.9-1-2.8-1.6c-0.8-0.5-1.5-1-2.3-1.4c0.7,0.3,1.3,0.5,2,0.9c1,0.6,1.9,1.2,3.1,1.4c0,0,0,0,0,0  C88,65.1,88.1,65.3,88.1,65.5z M88.3,67.1c-1.2-0.8-2.3-1.6-3.6-2.2c-0.7-0.3-1.3-0.7-2-1.1c-0.4-0.3-1-0.8-1.5-1  c2.4,0.7,4.4,2.4,6.9,3.1C88.2,66.3,88.2,66.7,88.3,67.1z M88.6,68.6c-1.8-1.5-4.3-2.3-6.3-3.7c0.4,0.3-1.3-0.8-0.9-0.7  c0.4,0.2,0.9,0.4,1.3,0.6c0.8,0.3,1.5,0.6,2.3,1c1.1,0.5,2.1,1.3,3.3,1.6c0.1,0.3,0.1,0.6,0.2,0.9C88.6,68.4,88.6,68.5,88.6,68.6z   M89,70.3c-2-1.6-4.5-2.6-6.5-4.2c-1.7-1.3,0.4,0,0.9,0.2c0.7,0.4,1.3,0.8,2,1.1c1.1,0.6,2.3,1.1,3.5,1.6  C88.8,69.5,88.9,69.9,89,70.3z M89.2,71.9c-0.9-0.9-2-1.4-3.1-2.2c-0.7-0.5-1.4-1.1-2.2-1.5c-0.7-0.4-1.7-0.8-2.3-1.4  c-0.6-0.7,0.4,0.1,0.5,0.2c0.3,0.2,0.7,0.5,1,0.7c0.7,0.4,1.4,0.8,2,1.2c1.2,0.8,2.4,1.6,3.8,1.9C89.1,71.2,89.1,71.6,89.2,71.9z   M88,71.5c-0.8-0.5-1.5-1-2.3-1.5c-1.4-1-2.8-2-4.3-2.8c0-0.1,0-0.3,0-0.4c0.7,0.9,1.9,1.3,2.8,1.9c1.4,1,3.1,1.9,4.4,3.1  C89.8,72.7,88.5,71.8,88,71.5z M81.3,67.5c1.6,1.5,3.3,3.1,5.1,4.5c-1.7-1.2-3.4-2.6-5.2-3.7c0-0.1,0-0.3,0.1-0.4  C81.3,67.7,81.3,67.6,81.3,67.5z M81.8,68.8c1.1,0.8,2.1,1.7,3.2,2.5c-0.2-0.1-0.4-0.2-0.5-0.4c-0.6-0.4-1.1-0.7-1.7-1.1  c-0.4-0.3-0.8-0.6-1.2-1C81.3,68.5,81.4,68.5,81.8,68.8z M88,74c-0.1-0.1-0.2-0.1-0.3-0.2c-0.3-0.2-0.6-0.4-0.9-0.6  c-0.6-0.4-1.2-0.7-1.8-1.2c-1.3-1-2.6-1.8-3.8-2.8c0-0.2,0.1-0.5,0.1-0.7c0.7,0.9,1.6,1.5,2.5,2.1C85.2,71.7,86.6,72.8,88,74z   M87.2,74.4c1,0.9-0.3,0-0.8-0.2c-0.7-0.4-1.3-0.8-2-1.3c-1.2-0.8-2.3-1.6-3.5-2.4c0,0,0,0,0,0c0-0.3,0.1-0.7,0.1-1  C82.9,71.4,85.3,72.7,87.2,74.4z M83.9,73.3c1,0.8,1.7,1.8,2.6,2.6c-0.7-0.6-1.8-1.4-2.7-2c-1-0.6-1.9-1.4-3-2.1c0-0.3,0-0.7,0-1.1  C81.9,71.7,82.9,72.5,83.9,73.3z M80.9,72.2c0.8,0.8,1.6,1.6,2.5,2.3c0.5,0.4,1,0.8,1.5,1.3c0.2,0.2,0.6,0.7,0.8,0.8  c-1.8-0.6-2.9-2.3-4.5-3.3c-0.1,0-0.1,0-0.1,0.1C80.9,73,80.9,72.6,80.9,72.2z M81,73.4c0.5,0.9,1.1,1.6,1.8,2.3  c0.3,0.3,1.4,1.5-0.1,0.1c-0.3-0.3-0.7-0.6-1-0.9c-0.1-0.1-0.2,0-0.2,0.1C81.3,74.5,81.1,74,81,73.4C81,73.4,81,73.4,81,73.4z   M77,55.3c-1.5,2.6-4.2,4.8-7.4,3.8c-0.1,0-0.2,0-0.3,0c0-0.7-0.1-1.5-0.2-2.2c-0.2-2-0.6-4-0.5-6.1c0.1-3.9,1.3-7.7,1.6-11.5  c0.5-7-2.8-13.4-8.6-17.2c-2.9-1.8-6-3-9.4-3.4c-2.2-0.3-4.4-0.4-6.6-0.6c-1.7-0.2-3.3-0.6-5-0.9c3.4-1.6,7-2.7,10.7-3  c0.1,0,0.2,0,0.3,0c2.5-0.2,5,0,7.5,0.7c7.3,2,13.9,7.2,16.7,14.4c2.9,7.5,1.4,15.1,1.1,22.9C76.9,53.2,76.9,54.3,77,55.3z   M48.5,13.9c0-0.2,0.3-0.2,0.7-0.1C48.9,13.8,48.7,13.8,48.5,13.9z M49.4,10.8c0.3,0.7,1.1,0.9,1.7,1.2c-0.7-0.1-1.5-0.6-2.2-0.3  c-0.1,0-0.1,0.1,0,0.2c0.7,0.5,1.5,0.8,2.2,1.2c-0.9-0.2-1.7-0.8-2.6-0.5c-0.1,0-0.1,0.1,0,0.2c0.3,0.4,0.8,0.5,1.2,0.7  c0.1,0.1,0.2,0.1,0.3,0.2c-0.1,0-0.1,0-0.2,0c-0.2,0-0.4-0.1-0.6-0.1c-0.3-0.1-1-0.2-0.9,0.3c0,0,0,0,0,0c0,0-0.1,0-0.1,0  c0.1-0.8,0.2-1.7,0.6-2.3C48.9,11.3,49.2,11,49.4,10.8z M51.4,10.2c0.3,0,0.6,0,1-0.1c-0.1,0.1-0.1,0.1-0.2,0.2  C51.9,10.3,51.7,10.3,51.4,10.2C51.4,10.2,51.4,10.2,51.4,10.2z M57.3,4.9C57.3,4.9,57.3,5,57.3,4.9c1.3,1.1,3,1.3,4.4,2.2  c0,0.1,0.1,0.2,0.1,0.2C61.5,7.3,61,7.1,61,7.1c-0.6-0.3-1.2-0.6-1.8-0.8c-0.7-0.3-1.5-0.6-2.3-0.7c0,0,0.1-0.1,0.1-0.1  C57,5.2,57.1,5.1,57.3,4.9z M60.4,5.1C59.6,5,59,4.6,58.3,4.3c0.4-0.1,0.9-0.1,1.4,0.2C59.9,4.7,60.2,4.9,60.4,5.1z M65.7,16.4  c2.1,1.5,4.6,2.6,6.8,3.9c1.4,0.8,2.8,1.7,4.2,2.6c0.7,0.5,1.3,0.9,2,1.4c0.1,0.1,0.6,0.4,0.9,0.6c-2.6-1.6-5.4-2.7-7.9-4.2  c-0.8-0.5-1.7-1.1-2.5-1.6c-0.1-0.1-0.2-0.1-0.3-0.2c-1.3-1-2.7-1.9-4.2-2.6c0,0,0.1,0,0.1,0C65.1,16.3,65.4,16.4,65.7,16.4z   M76.6,20.9c0.1,0.1,0.1,0.1,0.2,0.2c-2.5-1.5-5-2.8-7.6-4C72,17.8,74.6,19,76.6,20.9z M86.1,76.7C86.1,76.7,86.1,76.6,86.1,76.7  c-1.1-1.1-2.2-2-3.3-3c-0.5-0.4-1-0.8-1.4-1.3c-0.8-0.8,0-0.1,0.3,0.2c1,0.8,2.1,1.5,3.1,2.2c0.7,0.5,1.4,1,2.2,1.3  c0.1,0,0.2-0.1,0.1-0.2c-1.1-0.8-1.9-1.9-2.9-2.8c-0.9-0.7-2-1.7-2.8-2.2c2.2,1.4,4.3,3.1,6.7,4.3c0.1,0,0.2-0.1,0.1-0.1  c-0.9-1.1-2.1-1.7-3.2-2.6c-0.4-0.4-0.8-0.7-1.3-1c0.5,0.4,1.1,0.7,1.6,1.1c0.9,0.6,2.2,1.6,3.3,1.8c0.1,0,0.2-0.1,0.1-0.2  c-1-0.8-1.9-1.6-2.9-2.3c1,0.7,2,1.3,3.2,1.7c0.1,0,0.2-0.1,0.1-0.2c-1.4-0.9-3.1-2-4.3-3.2c-1-0.9-2.1-2.1-3.2-2.7  c2.7,1.5,5,3.5,7.7,5c0,0.8-0.2,1.6-0.7,2.4C87.9,75.6,87,76.4,86.1,76.7z M77.9,82.1c0.1-0.1,0.1-0.1,0.2-0.2c0,0,0,0,0,0  c1.1-0.8,2.6-0.7,3.7-1.6c1-0.9,1.5-1.8,1.3-2.9c0.4,0.1,0.7,0.2,1.1,0.3c0.4,0.1,0.9,0,1.3,0c-0.8,2.3-1.8,4.7-4.7,4.5  C79.9,82.1,78.8,81.9,77.9,82.1z M70.7,89.4c-2.1,0.4-3-3.3-3.1-4.9c0.3-0.4,0.6-0.8,0.8-1.2c1.4-2.3,2.1-4.9,2-7.5  c-0.1-2.1-0.5-4.1-0.7-6.1c-0.2-2-0.3-4-0.3-6c0-1.2,0-2.4-0.1-3.7c0,0,0,0,0.1,0c3.1,0.9,5.9-0.8,7.6-3.2c0.1,2.8,0.4,5.6,0.7,8.5  c0.4,4.4,0.7,8.8,0.8,13.1c-0.2,1-0.4,2.1-1,2.9c0,0,0,0,0,0c-0.2,0.1-0.3,0.3-0.5,0.4c0,0.1-0.1,0.1-0.1,0.2  c-0.2,0.2-0.4,0.4-0.6,0.6c-1.3,1.5-2,3.4-3.4,4.9C72.3,88.1,71.5,88.8,70.7,89.4z M20.7,85.2c9.3,4.5,19.3,6.6,29.7,6.2  c5.7-0.2,12.4-1.8,16.5-6.1c0.3,1.8,1.1,4.2,2.8,4.8c-2.1,1.4-4.6,2.3-7.1,2.8c-4.4,0.9-8.9,0.8-13.3,0.8c-2.9,0-5.9,0-8.7,0.4  c-2.7,0.3-5.6,0.7-8.3,0.1C27.3,93,23.4,89.5,20.7,85.2z"/>
</svg>