<?xml version="1.0" encoding="utf-8"?>
<!-- Generator: Adobe Illustrator 13.0.2, SVG Export Plug-In . SVG Version: 6.00 Build 14948)  -->
<!DOCTYPE svg PUBLIC "-//W3C//DTD SVG 1.1//EN" "http://www.w3.org/Graphics/SVG/1.1/DTD/svg11.dtd">
<svg version="1.1" id="Layer_1" xmlns="http://www.w3.org/2000/svg" xmlns:xlink="http://www.w3.org/1999/xlink" x="0px" y="0px"
	 width="100px" height="81.355px" viewBox="0 0 100 81.355" enable-background="new 0 0 100 81.355" xml:space="preserve">
<path fill="none" stroke="#000000" d="M73.189,50.114c0.819,2.433,2.621,7.785,2.621,7.785C85.79,58.512,100,66.217,100,76.316
	c0,0.088-0.007,0.174-0.02,0.257"/>
<path fill="none" stroke="#000000" d="M63.604,1.018c0.239-0.128,0.513-0.201,0.803-0.201c10.729,0,18.743,7.811,21.986,21.428
	c0.668,2.786,4.98,10.291,6.587,12.949c0.292,0.487,0.319,1.102,0.062,1.606c-1.702,3.369-8.79,14.353-28.635,14.353
	c-0.058,0-0.114-0.003-0.17-0.009"/>
<path fill="none" stroke="#000000" d="M37.288,57.865c-9.959,0-17.8-10.553-18.58-20.247c-3.539-0.516-5.149-2.729-5.149-4.923
	v-6.712c0-2.098,2.051-3.609,3.39-4.379v-5.688c0-6.023,2.003-11.6,16.39-11.742C38.19,0.736,42.857,0,45.959,0
	c6.003,0,11.16,2.694,13.135,6.86c1.468,3.109,0.938,6.506-1.475,9.638v5.105c1.343,0.766,3.39,2.277,3.39,4.379v6.712
	c0,2.187-1.613,4.407-5.155,4.923C55.088,47.312,47.248,57.865,37.288,57.865z"/>
<path fill="none" stroke="#000000" d="M0.015,79.902C0.005,79.828,0,79.754,0,79.678v-3.355c0-9.719,7.841-16.78,18.644-16.78h4.18
	c0,0,2.621-3.712,4.057-5.833"/>
<path fill="none" stroke="#000000" d="M47.796,53.472c1.404,2.021,4.224,6.077,4.224,6.077h4.189
	c10.811,0,18.366,6.905,18.366,16.779v3.356c0,0.198-0.036,0.39-0.102,0.566"/>
</svg>
