<?xml version="1.0" encoding="utf-8"?>
<!-- Generator: Adobe Illustrator 13.0.2, SVG Export Plug-In . SVG Version: 6.00 Build 14948)  -->
<!DOCTYPE svg PUBLIC "-//W3C//DTD SVG 1.1//EN" "http://www.w3.org/Graphics/SVG/1.1/DTD/svg11.dtd">
<svg version="1.1" id="Layer_1" xmlns="http://www.w3.org/2000/svg" xmlns:xlink="http://www.w3.org/1999/xlink" x="0px" y="0px"
	 width="100px" height="100px" viewBox="0 0 100 100" enable-background="new 0 0 100 100" xml:space="preserve">
<g>
	<g>
		<path d="M38.102,94.166H12.194c-1.306,0-2.49-0.607-3.249-1.665c-0.761-1.061-0.957-2.377-0.539-3.61l12.66-37.449v-4.616h-0.085
			c-0.625,0-1.134-0.507-1.134-1.135c0-0.626,0.509-1.136,1.134-1.136h8.332c0.603,0,1.096,0.475,1.13,1.069
			c0.091,0.269,0.06,0.532-0.087,0.752c-0.19,0.282-0.557,0.452-0.98,0.452c-0.005,0-0.075-0.002-0.082-0.002h-0.066v4.616
			l12.659,37.447c0.417,1.235,0.223,2.549-0.538,3.609C40.59,93.559,39.406,94.166,38.102,94.166z M21.752,51.421
			c0.009,0.055,0.006,0.112-0.013,0.167L9.053,89.106C8.707,90.133,8.87,91.223,9.5,92.102c0.63,0.878,1.611,1.38,2.694,1.38h25.908
			c1.082,0,2.065-0.502,2.693-1.38c0.632-0.879,0.794-1.969,0.45-2.995L28.555,51.588c-0.019-0.057-0.022-0.116-0.01-0.176v-4.927
			c0-0.19,0.152-0.343,0.342-0.343h0.427c0.001,0,0.005,0,0.01,0c0.273,0,0.416-0.076,0.468-0.149
			c0.011-0.019,0.042-0.064-0.002-0.174c-0.016-0.042-0.024-0.084-0.024-0.129c0-0.249-0.203-0.452-0.451-0.452h-8.332
			c-0.248,0-0.451,0.203-0.451,0.452c0,0.25,0.204,0.452,0.451,0.452h0.428c0.188,0,0.342,0.153,0.342,0.343V51.421L21.752,51.421z"
			/>
	</g>
	<g>
		<path d="M23.221,46.825h-2.239c-0.186,0-0.34-0.152-0.34-0.34c0-0.19,0.154-0.343,0.34-0.343h2.239c0.188,0,0.34,0.153,0.34,0.343
			C23.562,46.673,23.409,46.825,23.221,46.825z"/>
	</g>
	<g>
		<path d="M24.823,43.003c-1.698,0-3.082-1.383-3.082-3.084c0-1.701,1.384-3.084,3.082-3.084c1.701,0,3.085,1.383,3.085,3.084
			C27.909,41.621,26.524,43.003,24.823,43.003z M24.823,37.52c-1.322,0-2.398,1.077-2.398,2.4c0,1.324,1.077,2.401,2.398,2.401
			c1.325,0,2.401-1.077,2.401-2.401C27.224,38.596,26.148,37.52,24.823,37.52z"/>
	</g>
	<g>
		<path d="M25.911,34.208c-0.61,0-1.104-0.495-1.104-1.104c0-0.608,0.494-1.103,1.104-1.103c0.606,0,1.102,0.495,1.102,1.103
			C27.013,33.713,26.517,34.208,25.911,34.208z M25.911,32.685c-0.234,0-0.421,0.19-0.421,0.42c0,0.233,0.187,0.42,0.421,0.42
			c0.23,0,0.417-0.188,0.417-0.42C26.329,32.875,26.142,32.685,25.911,32.685z"/>
	</g>
	<g>
		<path d="M29.571,37.101c-0.984,0-1.787-0.8-1.787-1.787c0-0.987,0.803-1.789,1.787-1.789c0.988,0,1.79,0.802,1.79,1.789
			C31.36,36.301,30.559,37.101,29.571,37.101z M29.571,34.208c-0.608,0-1.104,0.496-1.104,1.105c0,0.61,0.496,1.106,1.104,1.106
			c0.61,0,1.106-0.496,1.106-1.106C30.677,34.705,30.181,34.208,29.571,34.208z"/>
	</g>
	<g>
		<path d="M26.724,65.916h-3.15c-0.189,0-0.342-0.15-0.342-0.341c0-0.188,0.153-0.341,0.342-0.341h3.15
			c0.189,0,0.342,0.152,0.342,0.341C27.066,65.766,26.913,65.916,26.724,65.916z"/>
	</g>
	<g>
		<path d="M26.724,70.549h-3.15c-0.189,0-0.342-0.15-0.342-0.341c0-0.188,0.153-0.344,0.342-0.344h3.15
			c0.189,0,0.342,0.155,0.342,0.344C27.066,70.398,26.913,70.549,26.724,70.549z"/>
	</g>
	<g>
		<path d="M26.724,75.179h-3.15c-0.189,0-0.342-0.154-0.342-0.343c0-0.187,0.153-0.339,0.342-0.339h3.15
			c0.189,0,0.342,0.152,0.342,0.339C27.066,75.024,26.913,75.179,26.724,75.179z"/>
	</g>
	<g>
		<path d="M26.724,79.809h-3.15c-0.189,0-0.342-0.152-0.342-0.342c0-0.187,0.153-0.342,0.342-0.342h3.15
			c0.189,0,0.342,0.155,0.342,0.342C27.066,79.656,26.913,79.809,26.724,79.809z"/>
	</g>
	<g>
		<path d="M26.724,84.441h-3.15c-0.189,0-0.342-0.154-0.342-0.343c0-0.188,0.153-0.343,0.342-0.343h3.15
			c0.189,0,0.342,0.155,0.342,0.343C27.066,84.287,26.913,84.441,26.724,84.441z"/>
	</g>
	<g>
		<path d="M26.724,89.071h-3.15c-0.189,0-0.342-0.154-0.342-0.342s0.153-0.343,0.342-0.343h3.15c0.189,0,0.342,0.155,0.342,0.343
			S26.913,89.071,26.724,89.071z"/>
	</g>
</g>
<g id="Layer_x0020_1">
	<path fill="none" stroke="#0A0B0C" stroke-width="0.6137" d="M71.729,57.22c13.323-1.597,24.334-7.464,26.88-15.68
		c0.264-0.85,1.225-3.615-3.181-5.612c-1.828-0.829-8.986-1.568-10.992-2.631c-2.271-1.205-4.141-3.618,3.511-2.903
		c4.585,0.429,4.395-2.508,2.994-3.548c-4.24-3.146-11.188-5.055-20.268-4.645c-15.706,0.71-28.444,9.347-28.444,19.289
		C42.229,51.429,57.027,58.984,71.729,57.22L71.729,57.22z M38.447,27.833h1.321c0.333,0,0.611,0.248,0.605,0.549L39.74,59.069
		c-0.006,0.302-0.271,0.548-0.604,0.548l0,0c-0.333,0-0.599-0.246-0.606-0.548l-0.688-30.688
		C37.834,28.081,38.114,27.833,38.447,27.833z M39.063,27.305c-0.407,0-0.854,0.15-1.14-0.463c-0.313-0.674-0.397-1.072-0.41-2.138
		c-0.025-2.038,1.948-2.184,0.988-4.729c0.882,0,2.161,1.601,2.161,3.638c0,1.196-0.017,2.626-0.399,3.3
		C39.995,27.392,39.429,27.307,39.063,27.305z M68.797,25.309c1.831-0.597,2.953,2.374,3.115,2.845
		c0.713,2.102-0.84,1.736-1.224,2.71c-0.612,1.561-2.324,0.892-2.8,1.217c-1.951,1.952-4.022-4.823-1.814-6.4
		C66.512,25.37,68.292,25.472,68.797,25.309z M45.508,43.274c-1.625-1.029-0.052-3.787,0.209-4.21
		c2.279-3.692,4.615,0.747,5.59,0.596c2.747,0.262-1.155,6.177-3.776,5.478C47.01,44.998,45.957,43.561,45.508,43.274z
		 M53.729,31.735c-1.685-4.587,2.578-3.006,4.421-2.895c1.783,0.108,1.833,3.25,2.383,3.553c2.021,1.878-4.675,4.199-6.329,2.05
		C53.874,34.016,53.911,32.233,53.729,31.735z M61.795,48.571c0.545,1.848-2.458,2.883-2.935,3.029
		c-0.781,0.241-1.759-0.644-2.54-0.403c-1.733-0.29-2.298-1.538-0.693-2.254c0.746-0.329,2.016-6.046,5.874-3.104
		C61.931,46.166,61.646,48.062,61.795,48.571L61.795,48.571z M70.702,48.01c1.928,0.027,2.036,3.197,2.036,3.698
		c0,0.815-0.044,1.174-0.044,1.992c-0.782,1.571-2.321-0.148-3.412,1.229c-2.396,3.038-5.987-6.02-1.278-7.441
		C68.521,47.336,70.172,48.005,70.702,48.01z M83.572,38.246c-1.766,0.347-3.198,1.56-3.198,2.713c0,1.151,1.433,1.802,3.198,1.456
		c1.764-0.347,3.194-1.561,3.194-2.712C86.767,38.55,85.336,37.898,83.572,38.246z"/>
</g>
<g>
	<g>
		<g>
			<path d="M18.522,26.588c-0.316-0.827-0.771-1.562-1.357-2.198c-0.585-0.653-1.308-1.162-2.145-1.54
				c-0.842-0.38-1.753-0.568-2.76-0.568c-0.221,0.003-0.397,0.035-0.787,0.08l-0.954-4.115c3.907-3.46,4.951-7.348,4.946-10.47
				c-0.011-3.646-0.979-6.154-2.477-7.061c-0.405-0.238-0.916-0.346-1.406-0.346c-0.449,0-0.877,0.089-1.209,0.303
				C9.721,1.11,9.146,1.741,8.656,2.563C8.155,3.383,7.776,4.329,7.515,5.419C7.24,6.508,7.097,7.677,7.086,8.921
				c0.062,1.89,0.37,3.739,0.924,5.553c-1.252,1.125-2.254,2.056-3.025,2.785c-0.793,0.775-1.556,1.636-2.293,2.576
				c-0.745,0.95-1.163,1.97-1.633,3.045c-0.474,1.076-0.598,2.221-0.598,3.409v0.014c0,1.285,0.111,2.526,0.637,3.704
				c0.534,1.178,1.129,2.336,2.095,3.276c0.98,0.941,2.058,1.557,3.317,2.073c1.278,0.528,2.669,0.782,4.095,0.782
				c0.763,0,1.482-0.072,2.189-0.214c0.11,0.455,0.262,1.055,0.468,1.79c0.242,0.882,0.42,1.596,0.53,2.124
				c0.112,0.532,0.173,1.061,0.176,1.585c0,0.788-0.103,1.404-0.301,1.815l-0.009,0.021l-0.005,0.018
				c-0.097,0.346-0.341,0.697-0.742,1.04c-0.396,0.341-0.865,0.607-1.444,0.816c-0.565,0.196-1.123,0.303-1.668,0.303
				c-0.821,0-1.433-0.186-1.874-0.536c0.713-0.057,1.337-0.311,1.831-0.763c0.562-0.506,0.853-1.157,0.853-1.892
				c0-0.549-0.153-1.062-0.432-1.518c-0.297-0.463-0.688-0.821-1.157-1.089l-0.002-0.003l-0.006,0.119
				c-0.479-0.257-0.999-0.277-1.541-0.277H7.465H7.453c-0.634,0-1.134,0.087-2.11,0.423v-0.059c0,0.318-0.549,0.709-0.823,1.221
				c-0.274,0.508-0.153,1.017-0.153,1.584v0.012v0.016c0,1.281,0.571,2.319,1.676,3.053c1.087,0.72,2.319,1.18,3.783,1.18
				c1.034-0.003,2.059-0.206,2.933-0.611c0.881-0.404,1.733-1.05,2.271-1.804c0.403-0.59,0.781-1.757,0.785-3.034
				c0-0.445-0.054-0.902-0.171-1.348c-0.121-0.573-0.926-3.716-1.141-4.67c1.522-0.541,2.483-1.37,3.261-2.455
				c0.824-1.144,1.24-2.429,1.237-3.819C19,28.268,18.826,27.409,18.522,26.588z M9.257,8.217c0.726-3.113,2.346-3.627,2.979-3.635
				c0.359,0.001,0.612,0.164,0.803,0.388c0.19,0.219,0.295,0.506,0.312,0.651l0.002,0.018l0.004,0.015
				c0.057,0.223,0.081,0.488,0.081,0.757c0,0.625-0.135,1.311-0.42,2.034c-0.286,0.747-0.674,1.479-1.162,2.205
				c-0.23,0.344-0.793,1.037-1.336,1.662c-0.273,0.311-0.545,0.608-0.774,0.838c-0.064,0.065-0.125,0.128-0.183,0.181
				c-0.169-0.856-0.405-2.621-0.402-3.938C9.161,8.921,9.191,8.504,9.257,8.217z M10.833,34.614
				c-2.358,0.006-4.886-0.928-5.939-1.873c-0.716-0.648-1.28-1.168-1.609-1.894C2.94,30.105,2.755,29.334,2.73,28.54
				c0.053-1.798,0.672-3.453,1.882-4.995c1.158-1.484,2.635-2.902,4.447-4.272l0.751,3.433c-1.155,0.444-2.292,1.167-3.044,2.158
				c-0.787,1.037-1.424,2.183-1.424,3.406v0.014c0,1.146,0.616,2.17,1.396,3.048c0.778,0.871,1.881,1.459,3.096,1.729l0.102,0.013
				l0.076-0.011c0.123-0.026,0.229-0.058,0.317-0.103c0.078-0.042,0.203-0.13,0.211-0.306c0.003-0.139-0.057-0.292-0.168-0.387
				c-0.104-0.093-0.229-0.144-0.371-0.176c-0.675-0.266-1.179-0.671-1.515-1.228c-0.357-0.576-0.529-1.105-0.528-1.541
				c0.001-0.726,0.285-1.395,0.903-2.03c0.552-0.557,1.133-0.935,1.763-1.142l1.87,8.293C11.963,34.561,11.402,34.614,10.833,34.614
				z M17.058,29.881c0,1.198-0.244,2.188-0.709,2.979c-0.466,0.796-1.236,1.372-2.263,1.738L13.8,34.694l-2.069-8.747L11.65,25.81
				h0.323c0.955,0,1.596,0.027,2.328,0.401c0.754,0.384,1.356,0.829,1.798,1.497c0.459,0.662,0.782,1.363,0.902,2.181l0.057-0.027
				V29.881z"/>
		</g>
	</g>
</g>
</svg>
