<svg xmlns="http://www.w3.org/2000/svg" xmlns:xlink="http://www.w3.org/1999/xlink" version="1.1" id="Layer_1" x="0px" y="0px" width="100px" height="80.0px" viewBox="0 0 120 96" enable-background="new 0 0 120 96" xml:space="preserve">
<path d="M109.708,42.456c-1.896-3.168-6.983-12.108-7.765-15.432c-3.84-16.232-13.291-25.54-25.947-25.54  c-2.116,0-4.116,0.356-6.057,0.868C71.355,3.716,72.527,5.268,73.348,7c2.172,4.632,1.664,9.832-1.352,14.452v2.7  c2.592,2.06,4,4.6,4,7.332v8c0,3.476-2.023,7.28-6.452,9.028c-0.735,4.116-2.364,8.192-4.632,11.84  c3.256,0.705,6.92,1.133,11.084,1.133c23.416,0,31.779-13.092,33.779-17.104C110.08,43.764,110.061,43.044,109.708,42.456z"/>
<path d="M87.988,69.984l-1.645-5.42c-3.119,0.576-6.539,0.92-10.352,0.92c-4.776,0-8.988-0.517-12.696-1.377L62.527,66.1  l0.949,1.385h2.844c14.88,0,25.672,10.092,25.672,24v2c0,0.703-0.145,1.371-0.368,2h26.368c1.104,0,2-0.9,2-2v-2  C119.992,79.344,100.004,70.676,87.988,69.984z"/>
<path d="M43.992,69.484c-11.752,0-21.004-12.58-21.924-24.132c-4.176-0.616-6.076-3.252-6.076-5.868v-8c0-2.5,2.416-4.304,4-5.22  v-6.78c0-7.18,2.364-13.828,19.34-13.996c5.724-4.096,11.232-4.972,14.892-4.972c7.084,0,13.168,3.212,15.5,8.18  c1.739,3.704,1.115,7.756-1.732,11.488v6.084c1.584,0.916,4,2.72,4,5.22v8c0,2.612-1.896,5.252-6.076,5.868  C64.996,56.908,55.744,69.484,43.992,69.484z"/>
<path d="M66.32,71.484h-4.948l-2.612-3.797c-4.128,3.541-9.172,5.797-14.764,5.797c-5.528,0-10.508-2.204-14.608-5.668l-2.456,3.668  H22c-12.752,0-22,8.416-22,20v2c0,1.1,0.896,2,2,2h84c1.104,0,2-0.9,2-2v-2C87.992,79.712,79.076,71.484,66.32,71.484z"/>
</svg>