<?xml version="1.0" encoding="utf-8"?>
<!-- Generator: Adobe Illustrator 13.0.2, SVG Export Plug-In . SVG Version: 6.00 Build 14948)  -->
<!DOCTYPE svg PUBLIC "-//W3C//DTD SVG 1.1//EN" "http://www.w3.org/Graphics/SVG/1.1/DTD/svg11.dtd">
<svg version="1.1" id="Calque_1" xmlns="http://www.w3.org/2000/svg" xmlns:xlink="http://www.w3.org/1999/xlink" x="0px" y="0px"
	 width="100px" height="100px" viewBox="0 0 100 100" enable-background="new 0 0 100 100" xml:space="preserve">
<g>
	<path fill="none" stroke="#000000" d="M58.463,32.532c0,3.073,2.492,5.566,5.564,5.566c3.073,0,5.566-2.493,5.566-5.566
		c0-3.069-2.493-5.561-5.566-5.561C60.955,26.971,58.463,29.463,58.463,32.532z"/>
	<path fill="none" stroke="#000000" d="M39.383,40.648c-0.636,1.723,0.244,3.637,1.967,4.273c1.724,0.637,3.637-0.245,4.273-1.968
		c0.637-1.721-0.245-3.634-1.969-4.271C41.932,38.047,40.02,38.928,39.383,40.648z"/>
	<path fill="none" stroke="#000000" d="M17.186,71.359c-0.186,0.923-0.738,3.32-1.661,4.797s1.106,3.691,2.769,3.876
		C17,81.14,16.816,82.062,17,82.615c0.186,0.555,2.216,1.293,2.4,3.323s-0.185,10.149,4.43,10.149
		c3.817,0,26.009-1.904,44.931-13.961c0.001,0,0.001,0,0.003,0c1.939-1.236,3.844-2.576,5.69-4.035
		c0.099-0.077,0.195-0.157,0.293-0.236c0.747-0.596,1.483-1.213,2.209-1.85c0.2-0.174,0.4-0.347,0.599-0.523
		c0.818-0.737,1.629-1.49,2.416-2.279c0.6-0.602,1.182-1.229,1.748-1.873c0.189-0.216,0.368-0.443,0.553-0.664
		c0.369-0.438,0.736-0.878,1.091-1.334c0.212-0.271,0.413-0.555,0.618-0.836c0.309-0.42,0.619-0.842,0.918-1.275
		c0.209-0.308,0.41-0.621,0.613-0.933c0.275-0.425,0.548-0.852,0.812-1.287c0.198-0.327,0.391-0.66,0.58-0.995
		c0.249-0.434,0.492-0.874,0.729-1.318c0.183-0.344,0.362-0.691,0.536-1.039c0.225-0.449,0.441-0.901,0.652-1.359
		c0.166-0.357,0.33-0.714,0.487-1.075c0.202-0.464,0.392-0.932,0.581-1.403c0.145-0.363,0.291-0.725,0.428-1.09
		c0.182-0.486,0.348-0.978,0.515-1.469c0.121-0.359,0.248-0.716,0.362-1.078c0.166-0.531,0.314-1.065,0.463-1.602
		c0.09-0.329,0.191-0.654,0.277-0.986c0.207-0.812,0.395-1.629,0.561-2.45c0.062-0.304,0.109-0.608,0.164-0.914
		c0.113-0.61,0.224-1.219,0.311-1.832c0.057-0.388,0.095-0.776,0.141-1.166c0.059-0.492,0.119-0.983,0.162-1.475
		c0.039-0.419,0.059-0.839,0.083-1.257c0.026-0.461,0.056-0.921,0.069-1.382c0.012-0.433,0.012-0.866,0.012-1.297
		c0-0.445-0.002-0.888-0.017-1.331c-0.013-0.44-0.037-0.878-0.062-1.315c-0.027-0.431-0.06-0.86-0.1-1.29
		c-0.042-0.443-0.089-0.884-0.146-1.322c-0.052-0.418-0.115-0.833-0.183-1.249c-0.068-0.441-0.142-0.881-0.228-1.319
		c-0.08-0.405-0.173-0.806-0.266-1.207c-0.101-0.438-0.199-0.877-0.316-1.309c-0.105-0.389-0.228-0.773-0.346-1.157
		c-0.135-0.435-0.262-0.871-0.41-1.299c-0.129-0.365-0.279-0.722-0.42-1.081c-0.17-0.436-0.33-0.875-0.52-1.304
		c-0.095-0.22-0.212-0.432-0.314-0.651c-0.447-0.956-0.943-1.886-1.485-2.796c-0.185-0.311-0.356-0.626-0.556-0.93
		c-0.256-0.399-0.541-0.783-0.816-1.169c-0.225-0.312-0.438-0.628-0.675-0.933c-0.29-0.375-0.603-0.736-0.911-1.098
		c-0.256-0.299-0.508-0.599-0.776-0.888c-0.323-0.353-0.667-0.693-1.012-1.031c-0.286-0.281-0.574-0.561-0.874-0.833
		c-0.36-0.328-0.734-0.646-1.115-0.96c-0.318-0.261-0.645-0.52-0.976-0.771c-0.397-0.301-0.804-0.595-1.222-0.882
		c-0.35-0.239-0.711-0.47-1.073-0.699c-0.438-0.276-0.879-0.548-1.337-0.806c-0.379-0.215-0.775-0.417-1.169-0.621
		c-0.479-0.247-0.953-0.495-1.454-0.723c-0.409-0.188-0.842-0.358-1.266-0.534c-0.521-0.216-1.032-0.439-1.576-0.637
		c-0.434-0.157-0.896-0.292-1.344-0.438C66.748,6.017,62.552,5.2,57.787,4.918c0,0-27.129-1.845-35.064,24.362
		c-3.33,13.555-0.186,17.902-0.924,23.623c-1.106,7.198-9.227,9.967-9.965,12.55C10.172,70.99,17.37,70.436,17.186,71.359z
		 M50.537,34.889v-3.93h2.418c0.233-1.653,0.82-3.185,1.693-4.529l-1.731-1.731l2.776-2.777l1.647,1.65
		c1.301-0.972,2.812-1.677,4.462-2.008v-2.385h3.928v2.306c1.671,0.255,3.221,0.868,4.562,1.772l1.7-1.701l2.774,2.777l-1.664,1.666
		c0.938,1.303,1.604,2.812,1.915,4.444h2.498v3.928h-2.459c-0.266,1.616-0.871,3.125-1.752,4.428l1.829,1.832l-2.774,2.776
		l-1.801-1.796c-1.264,0.913-2.723,1.572-4.309,1.896v2.642l-3.927,0.003v-2.57c-1.605-0.242-3.097-0.821-4.399-1.671l-1.863,1.862
		l-2.778-2.776l1.778-1.778c-0.942-1.268-1.633-2.729-1.975-4.329H50.537L50.537,34.889z M35.88,40.857l-1.429-0.528l0.814-2.204
		l1.355,0.501c0.473-0.878,1.12-1.616,1.889-2.188l-0.613-1.33l2.133-0.982l0.582,1.267c0.93-0.276,1.924-0.358,2.917-0.202
		l0.494-1.337l2.202,0.813l-0.479,1.293c0.885,0.489,1.627,1.154,2.191,1.939l1.305-0.602l0.98,2.132l-1.277,0.589
		c0.256,0.925,0.316,1.909,0.153,2.889l1.399,0.518l-0.812,2.202l-1.379-0.509c-0.484,0.85-1.136,1.572-1.899,2.12l0.646,1.406
		l-2.131,0.981l-0.639-1.38c-0.896,0.25-1.851,0.317-2.807,0.17l-0.548,1.481l-2.203-0.812l0.532-1.441
		c-0.85-0.468-1.565-1.102-2.12-1.849l-1.431,0.659l-0.982-2.133l1.365-0.629C35.824,42.787,35.74,41.824,35.88,40.857z"/>
</g>
</svg>
